<svg version="1.0" xmlns="http://www.w3.org/2000/svg"
 width="512" height="512" viewBox="4000 1000 6000 6000"
 preserveAspectRatio="xMidYMid meet">
<style>
  path { fill: #000000; }
  @media (prefers-color-scheme: dark) {
    path { fill: #ffffff; }
  }
</style>
<g transform="translate(0.000000,736.000000) scale(0.100000,-0.100000)">
<path d="M6790 6404 c-14 -2 -65 -9 -115 -15 -390 -47 -828 -208 -1179 -434
 -539 -345 -930 -877 -1096 -1490 -139 -515 -115 -1114 66 -1619 13 -38 23 -70
 21 -72 -2 -2 -35 3 -73 11 -78 17 -190 20 -199 6 -6 -11 29 -162 71 -298 40
 -134 108 -268 162 -322 74 -74 201 -110 383 -111 l77 0 34 -42 c50 -60 241
 -251 297 -296 25 -20 71 -57 101 -83 332 -276 865 -492 1369 -555 103 -12 382
 -19 338 -7 -9 2 -15 8 -12 13 6 10 45 1 45 -11 0 -24 294 1 492 41 53 11 177
 45 275 75 286 87 467 173 710 336 63 43 99 71 228 179 80 66 293 292 318 336
 6 11 32 14 105 14 106 0 207 18 274 48 97 43 177 164 243 367 42 131 79 290
 71 310 -7 20 -83 20 -182 -1 -42 -8 -77 -14 -79 -12 -1 2 22 80 52 173 99 315
 127 496 128 845 0 286 -11 384 -71 621 -72 287 -169 512 -325 756 -220 345
 -433 564 -764 785 -369 246 -803 400 -1265 448 -89 9 -444 12 -500 4z"/>
</g>
</svg>
