<?xml version="1.0" standalone="no"?>
<!DOCTYPE svg PUBLIC "-//W3C//DTD SVG 20010904//EN"
 "http://www.w3.org/TR/2001/REC-SVG-20010904/DTD/svg10.dtd">
<svg version="1.0" xmlns="http://www.w3.org/2000/svg"
 width="512px" height="512px" viewBox="0 0 1000 1000"
 preserveAspectRatio="xMidYMid meet">
<!-- Removed white background rect -->
<g transform="translate(-390.94, 962.78) scale(0.12, -0.12)">


<path d="M6790 6404 c-14 -2 -65 -9 -115 -15 -390 -47 -828 -208 -1179 -434
-539 -345 -930 -877 -1096 -1490 -139 -515 -115 -1114 66 -1619 13 -38 23 -70
21 -72 -2 -2 -35 3 -73 11 -78 17 -190 20 -199 6 -6 -11 29 -162 71 -298 40
-134 108 -268 162 -322 74 -74 201 -110 383 -111 l77 0 34 -42 c50 -60 241
-251 297 -296 25 -20 71 -57 101 -83 332 -276 865 -492 1369 -555 103 -12 382
-19 338 -7 -9 2 -15 8 -12 13 6 10 45 1 45 -11 0 -24 294 1 492 41 53 11 177
45 275 75 286 87 467 173 710 336 63 43 99 71 228 179 80 66 293 292 318 336
6 11 32 14 105 14 106 0 207 18 274 48 97 43 177 164 243 367 42 131 79 290
71 310 -7 20 -83 20 -182 -1 -42 -8 -77 -14 -79 -12 -1 2 22 80 52 173 99 315
127 496 128 845 0 286 -11 384 -71 621 -72 287 -169 512 -325 756 -220 345
-433 564 -764 785 -369 246 -803 400 -1265 448 -89 9 -444 12 -500 4z m163
-46 c-5 -7 -71 -91 -147 -186 -75 -96 -133 -178 -130 -184 4 -7 2 -8 -4 -4 -6
3 -14 0 -19 -7 -4 -8 -37 -19 -72 -26 -36 -7 -103 -24 -149 -37 -47 -14 -86
-23 -89 -21 -2 3 7 33 20 68 l24 64 105 -4 104 -3 30 35 c106 124 154 187 154
200 0 16 -74 37 -129 37 -86 0 -188 -58 -242 -137 -18 -26 -34 -50 -35 -52 -4
-5 -234 113 -234 120 0 9 190 64 300 88 191 41 307 56 459 60 49 1 61 -2 54
-11z m182 -100 c49 -62 114 -144 144 -183 91 -113 88 -105 43 -105 -35 0 -42
5 -78 53 -84 112 -207 267 -213 267 -11 0 -86 -103 -83 -113 1 -5 -1 -6 -6 -3
-13 8 -124 -142 -116 -156 4 -6 3 -8 -3 -5 -5 4 -20 -5 -31 -18 -16 -18 -32
-25 -58 -25 l-35 0 23 33 c39 55 219 279 261 324 22 24 45 43 52 43 6 0 51
-51 100 -112z m319 81 c129 -22 412 -91 447 -110 27 -14 25 -15 -101 -83 -93
-51 -106 -55 -115 -41 -74 123 -165 179 -290 177 -65 -1 -115 -15 -115 -33 0
-6 38 -59 85 -117 l86 -107 115 -5 115 -5 29 -70 c15 -38 27 -71 26 -72 -1 -2
-27 7 -57 18 -30 12 -102 33 -161 48 l-107 27 -143 182 c-79 101 -150 192
-158 204 l-14 21 119 -7 c66 -4 174 -16 239 -27z m-741 -95 c4 -4 -9 -19 -28
-34 -25 -20 -54 -31 -107 -39 -40 -6 -84 -13 -98 -17 -22 -5 -20 -1 17 34 23
21 57 44 75 49 37 12 131 16 141 7z m778 -14 c47 -17 109 -63 109 -80 0 -4
-42 2 -92 12 -100 20 -183 62 -157 79 24 15 86 10 140 -11z m-421 -41 c0 -5 5
-7 12 -3 6 4 8 3 5 -3 -4 -6 5 -18 18 -27 14 -9 23 -21 20 -25 -6 -10 62 -101
75 -101 6 0 10 -5 10 -12 0 -6 10 -27 23 -45 18 -28 28 -33 61 -33 60 0 254
-47 397 -96 199 -68 399 -175 547 -293 53 -42 60 -59 43 -104 l-10 -25 -43 41
c-58 56 -199 145 -338 216 -216 110 -461 180 -707 202 l-133 12 0 154 c0 95 4
153 10 153 6 0 10 -5 10 -11z m-1049 -120 c-57 -166 -46 -151 -94 -131 -64 26
-200 23 -253 -5 -67 -35 -160 -140 -142 -158 2 -3 69 -16 148 -30 143 -25 149
-25 180 5 3 3 33 31 66 63 l61 58 66 -27 c37 -15 67 -30 67 -33 0 -3 -29 -21
-64 -39 -36 -19 -77 -46 -92 -60 -15 -15 -24 -21 -20 -14 4 6 -20 -4 -54 -24
l-62 -36 -189 37 c-104 20 -196 34 -204 31 -8 -3 -15 0 -15 5 0 6 -9 9 -20 6
-11 -3 -23 -1 -26 5 -3 5 -13 7 -21 4 -9 -4 -22 -1 -29 5 -8 6 -21 9 -29 5
-18 -7 -20 5 -2 23 10 11 9 12 -3 6 -10 -6 -8 -1 4 13 11 12 24 22 31 22 7 0
81 46 166 103 145 97 357 209 479 255 63 23 84 30 87 27 2 -1 -15 -53 -36
-116z m212 56 c64 -33 117 -65 117 -71 0 -6 -11 -42 -25 -79 -14 -37 -24 -70
-21 -72 15 -15 -66 -73 -103 -73 -16 0 -176 64 -189 76 -8 6 89 286 97 282 3
-2 59 -30 124 -63z m777 -84 l0 -148 -107 -7 c-179 -12 -491 -75 -478 -96 3
-5 -5 -6 -17 -2 -16 4 -19 2 -13 -8 6 -10 4 -12 -9 -7 -51 20 -414 -172 -578
-306 -32 -26 -60 -47 -63 -47 -3 0 -5 20 -5 44 0 39 4 47 43 78 23 20 83 62
134 95 50 34 89 64 85 69 -4 4 -1 4 6 0 7 -4 39 7 75 28 148 82 444 178 622
201 93 12 99 14 117 37 10 13 18 26 18 29 0 3 20 27 45 54 25 26 43 50 41 53
-3 2 5 13 17 24 12 11 15 16 7 12 -18 -10 -44 -15 -37 -7 3 2 8 4 12 3 3 0 20
10 36 24 17 15 35 26 40 26 5 0 9 -64 9 -149z m1086 113 c177 -71 399 -198
565 -325 42 -32 79 -55 83 -52 3 4 6 1 6 -6 0 -7 4 -10 9 -6 5 3 13 0 17 -7 4
-7 4 -10 -1 -6 -4 4 -14 1 -22 -7 -8 -8 -24 -15 -36 -15 -12 0 -123 -20 -245
-45 -123 -25 -232 -45 -243 -45 -11 0 -43 14 -72 30 -30 17 -57 27 -62 23 -4
-5 -6 -3 -2 2 3 6 -30 31 -74 55 -43 25 -79 48 -79 51 0 8 113 59 129 59 6 0
45 -33 86 -72 86 -83 72 -80 245 -47 142 27 135 23 113 60 -27 46 -98 108
-151 132 -57 25 -160 27 -216 3 -52 -21 -55 -21 -67 14 -6 17 -15 30 -21 30
-6 0 -8 7 -4 15 3 8 -5 43 -18 78 -26 71 -38 117 -32 117 2 0 43 -16 92 -36z
m-102 -65 c17 -46 34 -86 38 -87 5 -2 6 -7 3 -12 -3 -4 1 -26 9 -48 l14 -40
-91 -42 c-143 -65 -175 -51 -225 98 -24 73 -28 93 -17 102 24 20 220 120 230
117 5 -2 23 -41 39 -88z m-1371 13 c-30 -37 -31 -37 -112 -40 -81 -3 -82 -3
-71 18 6 12 26 28 45 36 31 13 155 33 164 27 3 -2 -9 -20 -26 -41z m915 20
c69 -16 121 -60 75 -63 -70 -5 -120 -3 -139 7 -12 7 -26 9 -30 6 -4 -4 -4 -2
-1 4 4 6 -2 19 -13 29 -11 10 -20 24 -20 30 0 13 25 10 128 -13z m-279 -135
c0 -9 -2 -8 -6 1 -2 6 -10 9 -15 6 -7 -4 -8 -2 -4 5 9 13 26 5 25 -12z m-1429
-75 c0 -4 -35 -29 -78 -55 -62 -38 -86 -47 -122 -47 l-45 1 48 44 c27 25 63
49 80 54 40 12 117 14 117 3z m2532 -22 c21 -9 35 -12 31 -6 -3 6 10 -7 30
-29 20 -22 36 -43 37 -47 0 -5 -17 -8 -38 -8 -27 0 -60 13 -117 47 -44 26 -82
48 -84 49 -1 2 0 8 4 14 9 15 89 3 137 -20z m-2445 -8 c9 -6 -3 -24 -41 -61
-29 -29 -53 -60 -51 -69 1 -10 0 -12 -2 -5 -2 6 -23 15 -46 18 -58 10 -72 18
-55 32 17 14 167 93 176 93 4 0 13 -4 19 -8z m2328 -43 c33 -16 71 -38 85 -49
l24 -18 -37 -7 c-20 -4 -37 -11 -37 -16 0 -21 -26 -5 -86 53 -35 33 -64 65
-64 71 0 14 47 0 115 -34z m-1025 0 c47 -5 130 -20 185 -31 55 -12 110 -22
123 -22 12 -1 22 -4 22 -7 0 -4 30 -16 68 -29 186 -62 366 -154 526 -270 86
-62 112 -70 76 -24 -14 18 -13 18 7 0 13 -10 20 -22 18 -26 -3 -4 4 -19 15
-33 20 -25 30 -90 16 -104 -3 -4 -23 9 -44 28 -109 102 -349 258 -374 243 -4
-3 -8 0 -8 7 0 7 -3 9 -7 6 -3 -4 -11 0 -17 8 -16 21 -186 88 -314 124 -365
101 -731 91 -1097 -31 -90 -30 -311 -136 -389 -186 -62 -40 -229 -167 -245
-185 -22 -27 -31 -20 -31 26 1 40 4 44 73 98 233 181 504 309 792 374 192 43
429 56 605 34z m-1355 -59 c3 -5 -1 -10 -10 -10 -9 0 -13 5 -10 10 3 6 8 10
10 10 2 0 7 -4 10 -10z m2349 -9 c17 -19 17 -19 0 -17 -9 2 -18 10 -20 19 -3
21 -1 21 20 -2z m-993 -46 c193 -22 331 -58 502 -131 42 -18 77 -30 77 -27 0
3 8 -1 18 -9 9 -8 44 -30 77 -48 100 -56 231 -147 310 -216 74 -65 75 -66 75
-115 l0 -49 168 0 c119 0 173 -4 184 -12 25 -20 181 -264 228 -358 93 -185
159 -374 194 -555 56 -289 45 -642 -28 -922 -56 -213 -165 -449 -296 -643
-113 -167 -322 -380 -505 -517 -61 -45 -118 -89 -127 -97 -10 -9 -18 -14 -18
-11 0 3 -66 -28 -147 -69 -477 -238 -994 -278 -1536 -120 -67 20 -129 37 -137
38 -8 0 -17 4 -20 7 -3 4 -69 38 -148 77 -158 80 -243 134 -390 251 -55 44
-104 77 -109 73 -4 -4 -5 -3 -1 2 4 5 -32 52 -81 105 -156 170 -266 322 -340
469 -17 34 -35 62 -39 62 -4 0 -8 8 -9 18 -1 9 -16 51 -33 92 -43 105 -94 283
-121 430 -20 107 -23 157 -23 350 0 165 4 250 17 320 56 321 169 602 353 878
l88 132 170 2 171 3 2 44 c4 55 15 67 153 174 251 196 581 334 870 366 52 6
109 13 125 15 75 8 210 5 326 -9z m1561 -58 c-5 -118 -25 -255 -44 -307 -11
-30 -20 -60 -21 -66 0 -11 -21 -13 -31 -3 -3 3 1 63 9 135 8 71 15 135 15 142
0 13 -20 12 -270 -13 l-125 -12 -33 25 c-18 14 -30 27 -28 30 5 4 150 37 423
94 64 14 100 26 96 32 -4 6 -2 8 2 3 5 -4 8 -31 7 -60z m-3419 28 c10 -4 21
-5 24 -1 3 3 12 1 19 -5 8 -6 21 -9 29 -5 8 3 15 2 15 -3 0 -10 177 -44 190
-36 5 3 10 2 10 -3 0 -4 29 -14 65 -21 36 -7 65 -17 65 -21 0 -4 -15 -19 -32
-32 l-33 -25 -175 18 c-96 10 -183 18 -192 19 -15 0 -18 -9 -18 -62 1 -35 5
-97 10 -138 13 -117 -21 -121 -56 -5 -17 59 -41 294 -31 318 5 14 16 17 49 13
24 -2 51 -7 61 -11z m-143 -98 c1 -107 22 -223 54 -292 l25 -55 -69 -96 c-38
-53 -83 -120 -100 -150 -18 -30 -35 -54 -39 -54 -4 0 -13 17 -19 37 -11 37
-11 39 69 157 l80 119 -15 38 c-24 58 -45 160 -52 249 -7 79 -6 81 21 110 15
16 32 27 37 24 4 -3 8 -42 8 -87z m3640 68 c22 -23 23 -29 16 -112 -6 -88 -37
-238 -56 -272 -7 -14 7 -43 71 -139 l79 -122 -15 -37 -16 -37 -73 110 c-40 60
-78 108 -85 106 -7 -1 -10 2 -6 8 4 6 -5 24 -20 42 -16 19 -24 37 -19 47 3 9
7 22 7 29 0 6 4 12 8 12 20 0 55 156 65 293 4 53 10 97 14 97 3 0 17 -11 30
-25z m-3744 -112 c6 -41 4 -46 -38 -91 -24 -26 -68 -80 -97 -120 -30 -42 -62
-74 -74 -76 -39 -8 -87 -13 -87 -8 0 13 103 147 173 224 43 48 76 88 72 88 -4
0 -2 6 4 13 22 27 40 15 47 -30z m3922 -70 c56 -65 120 -145 143 -177 l42 -59
-49 8 c-27 4 -57 8 -66 8 -9 1 -16 6 -15 12 1 5 -4 9 -11 7 -8 -1 -11 2 -7 8
8 12 -50 94 -116 165 -33 36 -48 60 -51 86 -3 32 7 57 23 59 4 0 52 -53 107
-117z m-533 57 c-3 -5 -14 -10 -23 -10 -13 0 -14 -2 -4 -9 21 -13 6 -154 -19
-177 -19 -17 -19 -15 -19 79 0 62 4 97 11 97 5 0 7 5 3 12 -4 6 -3 9 2 6 5 -3
18 -2 29 3 27 10 27 10 20 -1z m-2995 -67 l0 -56 -22 19 c-30 26 -88 88 -88
94 0 3 25 3 55 2 l55 -4 0 -55z m3102 30 c-25 -35 -80 -88 -86 -82 -8 8 -10
85 -2 97 4 7 29 12 57 12 l50 0 -19 -27z m-3020 -55 c2 -40 2 -83 0 -96 -3
-23 -4 -23 -23 -6 -16 14 -19 31 -19 96 0 70 2 78 19 78 17 0 20 -9 23 -72z
m118 -88 c0 -82 -3 -150 -7 -150 -13 0 -73 64 -73 78 0 7 -4 10 -10 7 -5 -3
-10 -1 -10 4 0 6 5 11 10 11 6 0 10 40 10 100 l0 100 40 0 40 0 0 -150z m2691
138 c0 -7 0 -58 -1 -113 -1 -93 -3 -102 -29 -134 -49 -61 -51 -56 -51 108 l0
151 40 0 c25 0 40 -5 41 -12z m-2967 -65 l55 -58 -51 -3 c-34 -2 -54 1 -59 10
-9 14 -12 108 -4 108 3 0 30 -26 59 -57z m3221 -50 c-5 -20 -11 -23 -55 -23
-28 0 -50 4 -50 9 0 5 24 35 53 67 l52 57 3 -43 c2 -24 1 -54 -3 -67z m-3520
31 c5 -30 2 -41 -18 -63 -13 -14 -45 -56 -70 -93 -26 -37 -51 -69 -55 -72 -5
-3 -55 -15 -113 -26 -57 -12 -112 -24 -121 -26 -26 -8 -22 10 10 43 21 23 42
32 100 43 l73 13 85 109 c47 59 89 108 93 108 5 0 12 -16 16 -36z m3871 -74
l81 -103 83 -21 c66 -17 88 -27 103 -48 12 -15 18 -30 15 -34 -3 -3 -50 4
-105 16 -54 13 -108 25 -121 28 -15 3 -51 41 -98 104 -68 91 -74 103 -68 135
3 18 11 32 18 30 6 -2 47 -50 92 -107z m-3441 -31 c22 -11 30 -17 18 -15 -13
2 -23 0 -23 -5 0 -6 -37 -9 -87 -7 -83 3 -88 4 -91 26 -3 21 -1 22 70 21 51 0
85 -6 113 -20z m3083 -1 c-3 -21 -9 -23 -85 -26 -59 -2 -83 1 -83 9 0 25 36
38 103 39 65 0 68 -1 65 -22z m285 -40 c-2 -4 7 -14 19 -22 12 -9 19 -16 15
-16 -4 0 6 -20 22 -44 30 -43 30 -45 16 -80 -9 -20 -17 -36 -19 -36 -2 0 -25
34 -51 75 -27 41 -52 72 -57 69 -5 -3 -7 -2 -6 3 1 4 -3 17 -9 28 -8 15 -8 28
2 53 l14 32 28 -28 c16 -15 28 -30 26 -34z m-3765 23 c9 -26 7 -35 -22 -73
-17 -24 -45 -64 -61 -90 -33 -53 -40 -57 -55 -29 -17 33 -11 54 35 120 24 35
42 68 38 74 -3 6 -1 7 4 4 6 -4 16 0 23 8 18 22 27 19 38 -14z m3262 25 c0 -3
-4 -8 -10 -11 -5 -3 -10 -1 -10 4 0 6 5 11 10 11 6 0 10 -2 10 -4z m-2789
-102 c22 -21 39 -41 39 -45 0 -3 -63 -7 -139 -8 l-139 -1 -4 40 c-4 44 -11 42
131 48 73 4 74 3 112 -34z m-281 -26 c8 -41 6 -45 -50 -123 -310 -429 -453
-964 -396 -1490 42 -397 175 -728 419 -1050 77 -100 206 -237 218 -229 5 3 8
0 7 -8 -2 -7 3 -12 10 -10 8 1 11 -1 8 -6 -6 -9 51 -66 129 -129 67 -53 205
-145 205 -136 0 4 6 -1 13 -10 17 -22 231 -127 347 -170 121 -45 256 -80 281
-74 10 3 17 2 14 -3 -6 -10 46 -21 74 -15 12 2 21 0 21 -4 0 -12 129 -29 270
-37 175 -9 529 26 566 57 6 5 13 6 17 3 12 -13 350 102 367 124 3 4 12 8 20
10 43 9 243 124 235 136 -3 3 -2 4 1 1 12 -8 45 16 38 27 -4 7 -3 8 5 4 37
-23 356 267 513 465 124 157 277 443 336 629 129 406 133 874 10 1277 -17 56
-35 100 -39 97 -5 -3 -6 1 -4 9 10 24 -122 310 -138 300 -6 -3 -7 -1 -3 5 7
12 -77 155 -144 243 -36 47 -40 60 -38 99 4 54 18 57 51 13 13 -18 26 -32 28
-30 2 1 3 0 2 -2 -2 -2 21 -38 50 -80 162 -232 261 -442 330 -701 52 -191 71
-347 71 -575 0 -274 -32 -482 -111 -710 -109 -313 -264 -566 -495 -811 -37
-39 -64 -74 -60 -78 4 -4 2 -6 -4 -4 -7 2 -49 -29 -95 -68 -46 -38 -111 -90
-144 -114 -61 -44 -93 -70 -66 -55 10 5 12 4 7 -4 -4 -6 -11 -9 -16 -6 -5 3
-38 -13 -75 -35 -324 -198 -728 -310 -1123 -310 -156 0 -278 13 -465 51 -82
16 -154 26 -160 23 -7 -4 -9 -3 -5 1 5 5 -52 30 -125 56 -153 56 -358 156
-469 230 -43 28 -133 97 -200 154 -404 338 -673 813 -754 1335 -25 158 -25
499 -1 662 10 64 17 120 16 125 -1 4 1 15 4 23 3 8 22 71 42 139 69 238 155
423 295 635 38 58 68 106 66 106 -2 0 15 20 37 45 22 25 43 43 45 40 3 -2 8
-23 12 -47z m3276 36 c-3 -9 -6 -27 -6 -40 l0 -24 -135 0 c-148 0 -155 3 -108
52 26 27 29 28 141 28 100 0 113 -2 108 -16z m-3659 -96 c6 -7 27 -63 48 -125
36 -109 36 -112 19 -138 -18 -27 -18 -27 -28 -6 -5 11 -13 21 -17 21 -5 0 -6
7 -3 15 4 8 1 15 -5 15 -6 0 -8 7 -5 15 4 8 1 15 -6 15 -6 0 -8 4 -5 10 3 5 0
20 -7 32 -7 13 -13 25 -13 28 -5 34 -18 60 -31 60 -8 0 -65 -11 -126 -25 -61
-14 -113 -23 -116 -20 -4 3 1 18 10 33 15 24 30 30 140 54 68 14 126 27 129
27 4 1 11 -5 16 -11z m4221 -19 c110 -26 133 -34 147 -56 9 -13 14 -27 12 -30
-3 -3 -62 7 -132 22 -69 15 -128 25 -130 23 -2 -2 -21 -50 -42 -108 -21 -57
-43 -105 -49 -107 -6 -2 -16 8 -22 22 -9 20 -8 36 7 82 41 126 63 183 71 183
5 0 67 -14 138 -31z m-4278 -89 c8 -5 12 -10 8 -10 -4 0 -2 -13 3 -30 6 -16
15 -27 20 -24 5 3 6 -1 3 -9 -3 -8 4 -43 15 -78 17 -49 18 -64 9 -71 -17 -10
-207 -78 -219 -78 -13 0 -40 26 -33 32 6 7 -17 68 -26 68 -4 0 -6 8 -3 19 2
10 -1 24 -9 32 -7 8 -14 23 -15 34 -1 11 -5 32 -8 46 -6 25 -5 26 102 51 123
30 132 31 153 18z m4330 -16 c63 -14 117 -27 121 -29 3 -2 -13 -59 -36 -127
-28 -82 -48 -124 -58 -126 -16 -3 -196 59 -226 77 -11 7 -9 21 9 77 31 93 58
154 67 154 5 0 60 -12 123 -26z m-4600 -123 c7 -23 17 -41 22 -41 5 0 7 -3 5
-7 -3 -5 0 -19 6 -33 5 -14 12 -34 14 -45 11 -57 11 -58 -62 -85 -38 -15 -85
-34 -103 -44 -19 -10 -36 -15 -39 -12 -7 7 28 105 75 211 54 121 59 124 82 56z
m4806 -37 c42 -89 96 -235 90 -241 -2 -2 -27 7 -55 21 -28 15 -75 35 -106 47
-30 11 -57 25 -60 30 -4 5 10 53 30 107 20 53 38 103 40 110 8 23 27 1 61 -74z
m-4479 -111 c-28 -89 -111 -292 -117 -286 -4 4 -13 26 -20 48 -7 22 -28 71
-46 109 -19 38 -32 71 -30 74 9 9 183 71 200 72 13 0 17 -5 13 -17z m4159 -7
c38 -13 78 -26 89 -28 41 -7 44 -20 18 -78 -14 -30 -36 -83 -48 -118 -13 -35
-25 -65 -27 -67 -3 -3 -17 32 -33 78 -15 45 -41 115 -57 155 -15 40 -28 75
-28 77 0 9 16 5 86 -19z m-4429 -90 c-3 -8 -11 -32 -18 -55 -11 -36 -19 -44
-73 -70 -69 -32 -135 -86 -177 -144 -34 -46 -37 -34 -13 56 32 123 53 145 189
199 79 31 99 34 92 14z m4751 -37 c94 -46 121 -77 148 -176 10 -35 21 -63 25
-63 4 0 5 -9 2 -20 -7 -27 -16 -25 -37 10 -9 17 -28 38 -42 46 -13 9 -21 20
-18 25 3 5 -2 12 -11 15 -8 4 -29 19 -45 34 -17 15 -50 36 -75 46 -39 17 -47
25 -65 72 -11 30 -20 56 -20 59 0 11 57 -9 138 -48z m-4679 -52 c16 -35 34
-87 40 -115 9 -44 8 -57 -7 -86 -9 -19 -25 -39 -36 -46 -15 -9 -21 -8 -33 9
-21 31 -29 26 -25 -18 4 -38 0 -43 -125 -174 -70 -74 -132 -135 -136 -136 -11
-1 -34 55 -47 114 -14 61 0 138 39 215 16 32 28 60 25 62 -2 3 5 13 16 23 11
10 20 15 20 12 0 -4 19 7 42 22 24 16 45 28 47 26 2 -2 -14 -25 -35 -51 -33
-40 -35 -45 -13 -31 49 32 67 7 60 -82 -3 -38 -31 -100 -54 -120 -27 -22 -33
59 -10 142 3 14 0 17 -14 15 -26 -4 -32 -23 -32 -114 -1 -55 4 -86 13 -100 14
-18 16 -18 56 21 23 22 48 51 55 65 18 35 29 96 20 117 -14 35 -14 108 0 127
19 25 32 14 51 -49 10 -30 21 -55 25 -55 17 0 16 48 -1 101 -11 32 -20 62 -20
67 0 13 40 102 46 102 3 0 18 -28 33 -63z m4535 8 c16 -51 16 -60 2 -103 -23
-72 -30 -122 -17 -122 6 0 11 7 11 15 0 8 4 15 9 15 4 0 14 20 21 45 13 47 29
56 50 30 10 -12 10 -25 1 -59 -24 -96 -8 -159 58 -227 51 -52 77 -64 66 -28
-5 14 -3 19 3 15 17 -11 25 77 12 138 -6 31 -16 54 -21 51 -5 -3 -6 0 -4 8 3
7 -11 35 -31 61 -41 54 -39 68 4 37 16 -11 32 -18 36 -16 3 3 4 2 2 -1 -3 -3
15 -35 39 -70 46 -67 75 -144 75 -200 0 -47 -19 -129 -35 -150 -13 -18 -15
-18 -42 9 -16 15 -33 24 -38 20 -4 -5 -5 -3 -2 3 8 14 -86 107 -99 97 -5 -5
-6 -4 -2 1 5 5 -15 33 -42 62 -28 29 -50 57 -50 62 0 4 -16 14 -35 22 -19 7
-31 18 -28 23 3 6 1 7 -4 4 -10 -6 -51 30 -45 39 1 2 0 15 -4 28 -10 40 60
246 84 246 4 0 16 -25 26 -55z m119 -160 c-3 -10 0 -15 8 -13 8 2 13 -3 12 -9
-2 -7 4 -13 13 -13 9 0 12 5 8 12 -4 7 -3 8 5 4 8 -5 9 -12 2 -20 -7 -8 -6
-25 4 -51 16 -46 20 -131 5 -140 -5 -3 -21 12 -35 34 -33 49 -58 128 -44 137
6 3 8 13 5 21 -3 8 -1 23 4 34 13 23 22 25 13 4z m-4605 -134 c-7 -29 -51 -80
-203 -237 l-194 -199 32 -33 c20 -20 39 -31 49 -28 10 2 21 0 24 -5 3 -5 1 -8
-4 -7 -30 9 -6 -23 87 -117 56 -58 107 -102 112 -99 5 3 6 10 3 16 -4 7 -2 8
5 4 6 -4 9 -11 6 -16 -8 -12 11 -47 46 -88 19 -21 29 -44 29 -65 l0 -31 -65
64 c-36 36 -69 64 -73 63 -4 -2 -7 1 -7 6 0 5 -4 13 -8 18 -5 4 -7 3 -5 -4 2
-6 -1 -11 -7 -12 -5 -1 -10 5 -10 12 -1 6 -7 11 -15 9 -10 -2 -11 0 -2 11 10
11 0 27 -48 80 -33 36 -71 67 -83 69 -12 2 -22 8 -22 13 -1 17 -19 41 -37 48
-14 5 -18 1 -18 -16 0 -13 -4 -27 -9 -33 -5 -5 -16 -33 -26 -61 -9 -29 -21
-53 -26 -53 -5 0 -9 46 -9 102 l0 102 32 -30 c17 -16 28 -24 25 -19 -3 6 -2
17 3 25 7 11 0 24 -23 48 l-31 32 77 78 c43 43 74 82 70 87 -4 4 -3 5 3 2 13
-7 256 236 252 252 -4 14 54 60 68 54 8 -3 9 -15 2 -42z m4396 28 c-3 -5 -2
-9 3 -8 17 4 43 -14 43 -29 0 -21 231 -253 244 -245 6 3 8 2 3 -2 -4 -5 29
-45 73 -91 44 -45 80 -86 80 -91 0 -5 -18 -26 -40 -48 -21 -21 -36 -43 -33
-48 3 -6 2 -7 -4 -4 -5 3 -61 -46 -124 -109 -62 -62 -110 -114 -105 -114 5 0
3 -7 -4 -15 -7 -8 -9 -15 -6 -15 4 0 4 -5 0 -11 -5 -8 -9 -8 -14 1 -5 9 -26
-6 -66 -46 -46 -45 -60 -54 -62 -40 -9 45 16 78 200 262 l190 192 -196 198
c-149 151 -197 207 -202 231 -6 34 2 57 17 47 5 -3 7 -10 3 -15z m-4424 -189
c0 -38 -7 -48 -111 -155 l-111 -115 70 -77 c39 -43 89 -96 111 -118 36 -34 41
-45 41 -83 0 -41 -2 -43 -17 -31 -15 12 -16 12 -8 -1 8 -13 7 -13 -8 -1 -10 8
-15 16 -12 19 3 3 -36 48 -87 99 -76 77 -94 90 -107 81 -13 -10 -14 -10 -4 1
10 11 4 23 -28 59 -22 25 -38 49 -37 54 3 9 300 308 305 308 2 0 3 -18 3 -40z
m4670 -190 c39 -43 70 -81 70 -85 0 -9 -265 -285 -293 -304 -19 -14 -19 -12
-12 35 6 44 16 59 112 162 l106 113 -38 39 c-21 22 -43 36 -49 33 -6 -3 -8 -2
-3 2 4 5 -24 41 -63 81 -64 66 -70 75 -70 114 l0 42 85 -78 c47 -42 117 -112
155 -154z m-5090 145 c0 -8 10 -35 22 -60 l22 -45 -32 -32 c-17 -18 -34 -29
-37 -26 -10 10 6 188 16 182 5 -3 9 -12 9 -19z m5294 -21 c3 -26 6 -72 6 -102
l0 -56 -35 34 c-23 22 -33 40 -29 50 3 8 7 20 8 25 1 6 7 20 14 32 7 12 12 31
12 42 0 40 17 21 24 -25z m-4888 -131 c-3 -42 -6 -110 -6 -152 l0 -76 -77 77
-77 78 39 40 c21 22 35 40 30 40 -6 0 1 6 15 13 14 8 24 19 22 26 -1 7 2 10 7
7 5 -3 14 1 21 9 26 32 33 16 26 -62z m4484 62 c7 -8 16 -12 21 -9 5 3 8 0 7
-7 -2 -7 6 -18 18 -23 11 -5 25 -19 30 -30 5 -12 16 -19 24 -18 8 2 12 0 7 -4
-4 -4 0 -16 9 -25 16 -17 13 -23 -46 -86 -94 -101 -90 -103 -90 37 0 66 -4
120 -8 120 -5 0 -7 14 -4 30 5 33 13 37 32 15z m236 -210 c-3 -21 -37 -55 -48
-49 -5 4 3 19 18 35 32 33 33 34 30 14z m174 -90 c0 -57 -4 -95 -10 -95 -5 0
-10 6 -10 14 0 7 -8 16 -17 18 -16 4 -18 -4 -18 -86 0 -119 -21 -165 -116
-258 -39 -38 -73 -67 -77 -64 -3 4 8 21 25 39 63 66 91 155 78 254 -9 76 -27
79 -86 14 -63 -67 -76 -112 -60 -205 11 -64 10 -71 -8 -89 -19 -19 -19 -18
-40 71 -27 113 -26 118 5 159 14 18 22 33 18 33 -3 0 -1 7 6 15 7 9 15 13 18
10 3 -3 50 38 103 91 54 53 103 93 109 89 6 -3 8 -10 5 -15 -6 -10 5 -40 15
-40 4 0 10 7 13 14 4 11 1 13 -11 9 -15 -6 -15 -5 -3 10 9 12 10 17 2 17 -7 0
-9 5 -5 12 4 7 3 8 -4 4 -7 -4 -12 -4 -12 0 0 11 62 74 72 74 4 0 8 -43 8 -95z
m-90 32 c0 -2 -11 -14 -24 -26 -22 -21 -24 -21 -21 -5 1 11 8 18 14 17 6 -2
11 2 11 7 0 6 5 10 10 10 6 0 10 -1 10 -3z m-5103 -44 c27 -45 136 -153 146
-146 6 3 7 1 4 -4 -9 -15 24 -41 47 -37 13 2 16 0 8 -8 -8 -8 -7 -19 5 -39 16
-26 15 -34 -2 -111 -18 -85 -23 -110 -24 -140 -1 -10 -5 -18 -11 -18 -5 0 -9
10 -7 23 1 13 -3 21 -10 20 -9 -2 -10 13 -6 55 13 124 9 168 -20 211 -16 25
-32 39 -39 35 -6 -4 -8 -3 -5 3 9 15 -39 57 -57 50 -12 -5 -16 -21 -16 -66 0
-33 4 -63 10 -66 6 -4 5 -13 -2 -25 -16 -25 3 -86 42 -135 38 -48 32 -55 -14
-20 -43 33 -112 133 -126 183 -20 75 -4 205 30 247 18 21 27 19 47 -12z m4978
-162 c3 -5 2 -12 -3 -15 -5 -3 -9 1 -9 9 0 17 3 19 12 6z m-4898 -21 c14 -11
23 -20 19 -20 -4 0 0 -13 9 -30 23 -45 17 -145 -9 -137 -17 5 -56 88 -56 118
0 15 -6 30 -12 33 -10 5 -10 7 0 12 6 3 12 14 12 25 0 24 6 24 37 -1z m4933
-37 c0 -35 -8 -75 -19 -99 -37 -81 -65 -65 -56 31 3 33 7 72 7 87 2 19 6 24
14 17 7 -6 16 -4 24 6 22 27 30 16 30 -42z m-4885 17 c3 -5 1 -10 -4 -10 -6 0
-11 5 -11 10 0 6 2 10 4 10 3 0 8 -4 11 -10z m5020 -167 c-15 -67 -22 -81 -64
-122 -45 -45 -148 -103 -203 -117 -21 -5 -28 -2 -28 9 0 41 21 65 86 97 83 41
149 106 189 185 36 74 44 55 20 -52z m-5222 43 c31 -59 131 -161 147 -151 6 3
10 2 10 -3 0 -5 22 -19 49 -30 42 -19 50 -26 59 -62 9 -35 8 -40 -7 -40 -34 0
-181 80 -219 119 -40 41 -72 124 -72 185 0 18 -4 25 -12 20 -7 -4 -8 -3 -4 4
12 20 20 14 49 -42z m369 7 c32 -31 38 -87 14 -144 -7 -19 -11 -40 -8 -48 2
-8 0 -11 -6 -8 -5 4 -15 -7 -22 -23 -17 -42 -26 -45 -46 -15 -17 27 -27 105
-13 105 4 0 16 36 26 80 10 44 20 80 22 80 3 0 18 -12 33 -27z m4531 -96 l24
-89 -21 -39 c-11 -21 -24 -39 -27 -39 -14 0 -61 125 -66 176 -5 51 -4 57 23
85 34 35 30 40 67 -94z m-4420 -144 c24 -73 42 -133 39 -133 -3 0 -148 77
-160 85 -1 1 12 32 28 69 17 37 28 71 25 76 -3 5 -1 11 4 15 6 3 7 13 4 23 -4
12 -3 14 5 7 6 -5 31 -70 55 -142z m4318 59 c15 -42 30 -84 33 -92 5 -12 -14
-27 -75 -60 -66 -34 -81 -39 -75 -24 18 45 76 229 76 241 0 33 17 6 41 -65z
m-4741 -45 c0 4 9 -3 20 -15 23 -24 95 -63 153 -81 41 -14 46 -29 18 -55 -13
-12 -27 -15 -47 -10 -38 9 -141 61 -150 75 -5 8 -9 8 -14 -1 -5 -9 -8 -5 -8
11 -1 13 -4 39 -8 58 -6 31 -6 33 15 22 11 -7 21 -8 21 -4z m5130 3 c0 -6 -10
-30 -22 -53 -12 -23 -21 -45 -20 -49 1 -5 -1 -7 -5 -6 -5 1 -29 -8 -55 -20
-26 -12 -66 -26 -89 -32 -36 -10 -43 -9 -55 7 -7 10 -14 23 -14 28 0 6 40 28
88 48 48 21 104 48 123 62 38 27 49 30 49 15z m-4686 -173 c3 4 6 0 6 -7 0 -7
3 -11 6 -7 7 7 38 -24 54 -53 16 -30 20 -79 8 -86 -7 -5 -8 -2 -4 7 4 8 -2 3
-13 -11 -11 -14 -21 -21 -21 -16 0 19 -63 -50 -92 -101 -16 -29 -32 -53 -34
-53 -3 0 -34 13 -70 30 -37 16 -71 27 -78 23 -6 -3 -8 -2 -3 2 4 5 -23 25 -60
44 l-68 36 -37 100 c-20 55 -37 103 -38 106 0 7 136 -43 146 -54 4 -4 -5 -24
-20 -45 -14 -21 -26 -43 -26 -49 0 -8 119 -57 165 -68 6 -1 21 -7 35 -13 22
-9 28 -7 50 20 14 16 38 52 53 78 l27 49 -67 40 c-75 43 -80 43 -116 -18 -17
-29 -17 -32 -1 -38 11 -4 23 2 36 20 17 24 22 25 41 15 12 -7 25 -11 30 -10 4
1 7 -3 7 -9 0 -6 7 -9 15 -5 20 7 19 -1 -5 -31 -11 -14 -17 -30 -13 -37 3 -6
3 -8 -2 -4 -4 4 -15 -2 -24 -14 -17 -20 -19 -20 -91 -3 -5 1 -81 37 -88 42 -4
2 38 66 95 145 l34 48 78 -40 c43 -21 81 -36 85 -33z m4425 -24 c36 -55 59
-99 52 -101 -21 -7 15 -31 38 -25 23 6 25 40 2 35 -7 -1 -10 2 -6 7 3 6 -2 22
-11 36 -10 15 -13 30 -8 34 11 11 137 61 141 57 4 -4 -54 -172 -69 -199 -8
-16 -255 -147 -277 -147 -5 0 -23 24 -39 53 -17 28 -53 74 -81 102 -28 27 -51
52 -51 56 0 4 8 24 17 45 9 22 16 46 14 54 -1 12 0 12 7 2 7 -10 14 -11 35 -1
15 7 24 16 20 22 -3 6 -2 7 4 4 5 -3 38 9 74 28 35 19 66 34 69 34 3 0 34 -43
69 -96z m-229 23 c0 -2 -7 -7 -16 -10 -8 -3 -12 -2 -9 4 6 10 25 14 25 6z
m-33 -191 c0 -8 -4 -12 -9 -9 -5 3 -5 10 -2 16 5 7 2 8 -6 3 -9 -5 -11 -4 -6
4 4 7 2 10 -5 9 -7 -2 -15 6 -17 17 -4 19 -3 19 20 -3 14 -12 25 -29 25 -37z
m-57 41 c0 -2 -7 -7 -16 -10 -8 -3 -12 -2 -9 4 6 10 25 14 25 6z m-4022 -33
c13 -26 -3 -194 -28 -301 -12 -51 -19 -99 -16 -107 3 -8 1 -15 -5 -15 -6 0 -8
-3 -5 -8 2 -4 -1 -14 -7 -23 -15 -20 -50 -21 -43 -2 4 9 1 11 -6 7 -7 -5 -9 0
-6 14 4 12 3 22 -2 22 -4 0 -7 6 -7 13 1 6 -5 45 -12 84 -22 112 4 195 87 286
14 15 22 27 18 27 -4 0 -4 5 -1 10 9 15 23 12 33 -7z m-590 -9 c81 -17 112
-29 112 -44 0 -5 14 -38 30 -73 29 -64 36 -87 24 -87 -3 0 -38 26 -77 58 -40
32 -100 78 -134 102 -91 66 -85 71 45 44z m540 0 c-1 -5 -9 -9 -16 -10 -10 -2
-11 1 -1 12 12 14 24 13 17 -2z m4112 -9 c22 -23 48 -26 34 -3 -5 7 -2 8 5 3
9 -5 9 -11 3 -17 -7 -7 -3 -23 15 -50 60 -96 67 -177 27 -296 -33 -100 -42
-114 -50 -84 -3 12 -10 22 -15 22 -5 0 -6 6 -3 13 2 7 -7 60 -21 118 -27 110
-45 319 -28 319 5 0 20 -11 33 -25z m638 17 c12 -8 -12 -28 -245 -206 l-25
-19 7 22 c4 12 22 56 40 96 37 80 41 83 155 104 25 5 47 9 50 10 3 0 11 -3 18
-7z m-5286 -136 c148 -111 254 -215 295 -288 18 -32 31 -58 29 -58 -2 0 -28
11 -57 23 -30 13 -103 41 -164 61 -60 21 -122 42 -137 48 -22 8 -32 24 -52 87
-26 77 -56 195 -56 220 0 9 4 10 13 4 6 -5 65 -49 129 -97z m669 39 c55 -123
32 -239 -71 -355 l-41 -45 3 50 c2 28 6 53 11 56 13 9 47 181 53 272 4 48 9
87 11 87 2 0 17 -29 34 -65z m4669 51 c0 -25 -70 -260 -84 -281 -8 -12 -47
-31 -102 -49 -49 -15 -129 -44 -178 -62 -48 -19 -90 -34 -92 -34 -3 0 7 20 22
45 14 25 23 45 20 45 -4 0 26 34 66 76 63 66 319 272 341 273 4 1 7 -5 7 -13z
m-761 -97 c6 -53 22 -140 36 -193 14 -53 25 -109 25 -124 0 -27 -1 -26 -43 19
-60 65 -74 84 -70 96 2 6 -2 17 -9 24 -22 23 -21 127 2 193 18 53 39 91 45 84
2 -2 8 -46 14 -99z m-4274 7 l100 -51 6 -75 c7 -82 26 -162 40 -171 6 -3 12
-18 15 -34 3 -15 12 -41 20 -57 11 -21 13 -42 9 -70 -7 -39 -8 -40 -24 -22
-33 35 -159 240 -219 352 -32 62 -62 109 -67 105 -4 -5 -5 -3 -1 4 4 7 0 26
-9 42 -8 17 -15 33 -15 36 0 11 43 -6 145 -59z m4721 30 c-8 -19 -12 -37 -8
-40 3 -3 -4 -16 -15 -29 -11 -12 -44 -69 -74 -127 -40 -80 -172 -290 -206
-330 -8 -8 -23 25 -23 51 0 14 10 45 21 69 41 85 61 156 68 240 l6 85 113 58
c63 31 118 57 123 57 5 0 3 -15 -5 -34z m-4263 -110 c14 -14 22 -27 19 -30 -3
-3 0 -6 6 -6 7 0 12 -5 12 -11 0 -9 29 -51 104 -148 9 -11 -8 -12 -99 -6 -61
4 -111 8 -112 9 -2 2 6 28 17 59 11 31 20 79 20 107 0 27 2 50 5 50 2 0 15
-11 28 -24z m3725 -98 c6 -6 8 -16 5 -23 -2 -7 2 -26 11 -43 l15 -29 -115 -9
c-62 -5 -114 -8 -114 -6 0 2 27 38 60 80 32 42 58 78 56 79 -2 2 11 18 28 37
l31 33 6 -54 c4 -30 11 -59 17 -65z m-4382 -122 c54 -18 128 -48 163 -65 67
-34 161 -114 161 -137 0 -29 -203 -8 -291 30 -48 20 -101 77 -139 148 -38 71
-35 72 106 24z m5114 24 c0 -22 -43 -94 -81 -135 -56 -61 -121 -86 -256 -98
-62 -6 -116 -8 -119 -4 -4 4 -1 14 7 24 12 14 12 16 0 8 -39 -23 6 18 58 53
83 57 173 101 271 133 94 30 120 34 120 19z m-4313 -54 c4 -3 -4 -17 -16 -30
-13 -14 -20 -29 -17 -34 3 -5 -2 -16 -12 -23 -16 -13 -16 -12 -2 6 15 20 15
20 -8 1 -12 -11 -21 -25 -18 -32 3 -9 -3 -10 -22 -4 -15 4 -76 11 -135 15 -59
4 -107 9 -107 13 0 3 12 21 26 40 42 54 73 63 197 58 59 -2 111 -6 114 -10z
m3652 -8 c44 -24 81 -71 67 -85 -4 -4 -66 -9 -137 -10 -72 -1 -134 -5 -138 -8
-5 -2 -6 -16 -3 -31 5 -26 -17 -406 -24 -413 -2 -3 -41 3 -87 13 -165 34 -274
58 -361 78 l-90 21 -53 -29 c-29 -15 -53 -32 -53 -37 0 -4 -5 -5 -12 -1 -7 5
-8 3 -3 -6 5 -8 3 -11 -6 -8 -8 3 -47 -11 -88 -29 -72 -33 -111 -39 -118 -18
-2 6 32 28 74 49 43 21 116 59 163 85 79 45 146 69 134 50 -3 -5 4 -9 15 -9
25 0 28 15 6 24 -23 8 -3 40 33 55 23 10 50 8 142 -9 62 -11 117 -20 122 -20
4 0 8 55 8 123 0 85 4 127 13 136 10 11 9 12 -3 6 -8 -4 1 8 19 29 19 20 39
32 43 28 13 -13 -3 -402 -16 -402 -6 0 -47 7 -90 15 -44 8 -88 12 -99 9 -14
-4 -17 -3 -12 6 6 10 1 11 -19 6 -17 -4 -26 -2 -26 5 0 7 -10 9 -25 7 -14 -3
-28 -1 -31 3 -10 17 -33 9 -31 -11 1 -20 25 -26 90 -22 15 1 27 -2 27 -7 0 -5
8 -8 18 -6 9 1 22 -1 28 -6 13 -10 202 -44 209 -37 3 2 8 80 12 172 5 139 4
169 -8 177 -10 6 -10 9 -1 9 6 0 12 7 12 15 0 8 -6 15 -12 16 -10 0 -10 2 0 6
6 2 12 12 12 20 0 13 2 13 17 2 14 -12 16 -12 9 1 -4 8 7 -3 26 -24 45 -51 62
-31 19 21 -17 21 -31 41 -31 45 0 10 42 15 136 17 67 1 88 -3 123 -21z m-3544
-7 c3 -5 2 -12 -3 -15 -5 -3 -9 1 -9 9 0 17 3 19 12 6z m-45 -29 c0 -7 -4 -10
-10 -7 -7 4 -10 -68 -10 -209 0 -120 4 -216 9 -216 5 0 53 9 107 21 55 11 104
21 109 23 6 1 15 5 21 8 6 4 21 6 33 3 11 -2 21 0 21 5 0 5 6 7 13 5 6 -3 46
1 87 8 l75 13 112 -59 c62 -32 117 -56 123 -52 5 3 10 2 10 -3 0 -6 29 -23 65
-38 36 -16 65 -31 65 -35 0 -21 -54 -16 -120 11 -40 16 -77 27 -83 23 -5 -3
-7 -2 -4 4 7 11 -135 83 -165 83 -34 0 -138 -23 -138 -31 0 -4 -10 -6 -22 -6
-34 2 -208 -34 -208 -43 0 -4 -12 -5 -26 -2 -19 3 -25 1 -20 -7 6 -8 0 -11
-20 -9 -22 2 -29 -2 -32 -17 -2 -14 0 -16 6 -8 4 7 28 13 53 14 24 1 117 16
206 35 89 19 173 34 188 34 14 0 48 -11 75 -25 27 -14 58 -25 70 -25 11 0 20
-4 20 -9 0 -4 28 -20 62 -35 34 -15 57 -30 52 -35 -5 -5 -35 -20 -66 -34 l-57
-25 -18 20 c-10 11 -44 41 -76 66 l-59 45 -149 -24 c-91 -14 -149 -28 -149
-35 0 -35 116 -145 134 -127 3 3 6 1 6 -6 0 -7 4 -10 9 -6 5 3 12 1 16 -5 4
-6 10 -8 15 -5 5 3 11 1 15 -5 10 -17 126 -11 185 10 30 10 58 16 61 14 4 -2
19 -40 34 -84 15 -44 32 -86 38 -93 15 -15 21 -77 7 -77 -5 0 -32 9 -60 20
-28 11 -57 17 -63 14 -7 -4 -9 -4 -6 0 4 4 -68 45 -160 92 -96 48 -212 117
-276 163 -60 44 -112 77 -114 75 -2 -2 -11 5 -19 17 -10 15 -11 24 -3 32 19
19 12 28 -21 25 l-33 -3 -7 100 c-4 55 -11 154 -15 220 l-8 120 35 45 c23 30
42 45 57 45 13 0 23 -6 23 -13z m55 3 c11 0 20 -7 20 -15 0 -8 5 -15 12 -15 6
0 15 -4 20 -8 4 -5 1 -7 -7 -5 -13 2 -15 -18 -18 -129 -3 -154 -15 -142 118
-118 118 22 160 25 160 14 0 -5 7 -9 16 -9 9 0 28 -10 42 -21 15 -12 20 -19
12 -17 -8 3 -29 0 -47 -8 -17 -7 -42 -10 -54 -7 -15 4 -20 3 -15 -6 5 -8 -2
-11 -21 -9 -46 3 -84 -2 -80 -9 3 -5 -14 -8 -36 -8 -23 0 -68 -4 -99 -9 l-58
-8 -1 78 c0 44 -2 88 -4 99 -4 18 -7 163 -6 208 1 12 5 15 14 10 6 -4 21 -8
32 -8z m-221 -97 c-5 -8 -2 -9 10 -5 9 4 15 3 12 -2 -3 -5 -1 -79 5 -164 6
-85 9 -167 7 -181 l-3 -27 -37 31 -38 31 0 115 c0 74 -4 113 -10 109 -5 -3
-10 -2 -10 3 0 5 -37 14 -82 21 -114 17 -120 19 -116 44 3 21 8 22 120 22 64
0 120 3 124 8 12 11 26 8 18 -5z m389 -82 c31 -28 57 -53 57 -57 0 -4 -28 -10
-62 -14 -35 -3 -71 -9 -80 -11 -16 -5 -18 4 -18 81 l0 86 23 -18 c13 -10 49
-40 80 -67z m2927 3 l0 -82 -65 7 c-115 12 -115 12 -27 88 42 37 80 67 85 67
4 1 7 -36 7 -80z m538 54 c4 -24 -5 -28 -87 -38 -36 -5 -49 -10 -40 -16 11 -7
9 -9 -6 -10 l-20 0 20 -8 c11 -5 45 -6 75 -3 l55 5 -27 -30 c-16 -16 -28 -37
-28 -46 0 -9 -5 -17 -12 -17 -7 0 -31 -19 -55 -42 -23 -23 -45 -40 -47 -37 -2
2 -6 41 -7 86 -2 45 -6 80 -10 77 -4 -2 -10 2 -12 8 -3 7 -6 -39 -6 -102 l-1
-114 -32 -33 c-18 -18 -36 -33 -41 -33 -4 0 -5 77 -1 173 4 94 8 180 8 189 0
15 15 16 136 15 130 -2 135 -3 138 -24z m-4018 -74 c0 -7 13 -10 34 -7 19 2
33 1 30 -3 -2 -4 0 -9 6 -11 14 -4 26 -148 12 -148 -5 0 -43 35 -83 78 -40 42
-67 69 -60 60 21 -28 7 -21 -20 9 -13 15 -16 21 -6 14 10 -8 17 -9 17 -3 0 6
12 13 28 15 15 2 30 5 35 6 4 0 7 -4 7 -10z m3180 -119 c0 -5 -4 -10 -10 -10
-5 0 -10 5 -10 10 0 6 5 10 10 10 6 0 10 -4 10 -10z m150 -166 c88 -19 164
-33 169 -29 5 3 12 1 16 -5 3 -5 23 -10 44 -10 21 0 52 -6 69 -13 l30 -12 -20
-25 c-11 -14 -23 -25 -27 -25 -3 0 -71 -44 -151 -97 -127 -84 -361 -212 -427
-232 -13 -4 -23 -12 -23 -17 0 -6 -4 -8 -9 -5 -5 4 -20 2 -34 -3 -21 -8 -26
-6 -30 10 -3 10 -2 19 2 19 4 0 7 10 8 22 1 11 8 25 15 29 7 5 9 9 4 9 -5 0
-4 6 2 13 6 7 22 46 36 86 14 40 26 75 28 77 2 2 32 -6 67 -16 120 -38 223
-19 297 55 23 24 49 57 58 73 l16 31 -58 6 c-31 4 -91 13 -132 21 -41 8 -84
14 -95 14 -11 0 -55 -29 -98 -65 l-77 -65 -61 31 -61 30 63 30 c34 16 68 37
74 46 7 9 16 14 21 11 5 -4 29 5 54 18 25 12 51 23 58 24 7 0 84 -16 172 -36z
m-92 -69 c23 -4 42 -9 42 -13 0 -10 -162 -92 -181 -92 -30 0 -29 14 3 47 17
18 28 33 23 33 -5 0 -1 6 9 13 22 16 49 19 104 12z m-2411 -47 c65 -44 75 -57
46 -59 -60 -4 -83 -3 -83 4 0 5 -4 5 -10 2 -5 -3 -10 -2 -10 4 0 5 -22 22 -50
38 -56 31 -61 40 -27 46 54 10 75 5 134 -35z m1871 10 l-1 -33 -136 -32 c-75
-18 -153 -35 -174 -39 -32 -5 -48 -19 -105 -88 -141 -169 -264 -326 -266 -338
-1 -7 -6 -15 -11 -16 -6 -2 -18 -8 -29 -14 -10 -5 -16 -6 -13 -1 6 9 -162 219
-173 216 -4 -1 -7 4 -7 11 0 21 -166 216 -188 220 -11 3 -80 18 -154 35 -73
17 -137 28 -142 25 -5 -3 -9 0 -9 5 0 6 -5 10 -11 8 -6 -1 -13 12 -15 30 -3
29 -2 32 24 30 15 -1 29 -5 32 -8 8 -8 113 -35 234 -59 96 -19 114 -26 140
-54 17 -17 31 -35 31 -41 1 -5 6 -9 13 -8 7 2 13 -2 13 -7 1 -6 2 -14 3 -18 0
-5 52 -75 114 -155 l114 -147 111 147 c62 81 111 152 109 159 -1 7 3 16 9 20
8 5 9 3 4 -7 -5 -8 -4 -11 1 -6 5 5 9 16 9 25 0 9 6 17 13 17 7 0 22 12 35 27
18 23 39 31 122 48 75 15 238 58 302 79 1 1 2 -14 1 -31z m178 -24 c65 -30
120 -56 121 -58 1 -1 -13 -44 -32 -96 -19 -51 -32 -97 -29 -102 3 -4 0 -8 -6
-8 -7 0 -9 -8 -5 -21 5 -15 4 -19 -4 -15 -6 4 -11 0 -11 -9 0 -8 -6 -18 -14
-21 -12 -5 -207 94 -231 117 -6 6 -1 35 15 82 23 70 70 187 75 187 1 0 56 -25
121 -56z m-1655 16 c6 -16 15 -30 21 -30 5 0 6 -4 3 -10 -3 -5 -2 -10 4 -10 6
0 8 -6 5 -13 -2 -7 3 -31 12 -53 19 -41 19 -42 29 -89 6 -30 6 -30 -115 -90
-101 -50 -122 -57 -130 -45 -23 37 -92 252 -84 260 10 9 223 108 237 109 4 1
13 -12 18 -29z m2179 6 c0 -19 -67 -71 -123 -95 -41 -18 -51 -19 -89 -7 l-43
12 60 32 c33 17 74 40 90 51 35 24 105 29 105 7z m-2720 -36 c33 -17 62 -29
65 -28 8 5 45 -31 45 -43 0 -8 -18 -10 -54 -7 -35 3 -53 1 -52 -6 2 -6 1 -8
-1 -3 -3 4 -11 7 -18 7 -7 0 -15 4 -17 9 -1 5 -9 11 -17 13 -17 4 -81 65 -81
78 0 20 73 9 130 -20z m1966 -103 l-23 -62 -107 0 -108 0 -39 -45 c-21 -25
-65 -76 -96 -114 -54 -64 -56 -69 -39 -82 25 -18 98 -28 149 -20 93 15 172 68
227 153 l27 41 108 -57 c60 -31 110 -61 112 -67 7 -20 -324 -110 -487 -133
-108 -15 -321 -33 -327 -27 -3 2 25 40 61 84 36 44 66 87 66 97 0 9 4 14 9 11
4 -3 47 44 95 104 52 65 96 112 109 114 127 25 265 61 261 67 -3 5 2 6 10 3
13 -5 12 -14 -8 -67z m-1067 -7 c13 0 96 -80 92 -88 -5 -8 94 -122 106 -122 8
0 11 -4 8 -10 -3 -5 26 -49 64 -97 39 -48 69 -89 66 -91 -5 -5 -244 16 -330
29 -148 23 -495 113 -495 129 0 8 212 120 228 120 6 0 14 -9 17 -21 4 -11 32
-46 63 -78 66 -67 123 -91 214 -91 57 0 128 21 128 37 0 4 -43 57 -96 116
l-96 108 -105 -2 -106 -2 -13 32 c-7 17 -17 46 -22 64 l-9 34 135 -34 c75 -18
143 -33 151 -33z m378 56 c5 -4 11 -258 7 -271 -7 -18 -30 -20 -40 -3 -5 7 -2
9 7 4 8 -4 3 2 -10 13 -13 12 -19 21 -15 21 5 0 0 7 -11 16 -11 8 -20 18 -20
22 -1 17 -78 112 -92 112 -10 0 -13 6 -9 16 3 8 2 13 -3 10 -12 -8 -31 17 -37
48 l-4 26 112 -6 c62 -4 114 -7 115 -8z m277 -2 c3 -8 11 -12 17 -8 8 5 9 3 5
-5 -5 -7 -10 -10 -13 -7 -8 8 -64 -34 -58 -44 3 -4 -1 -10 -8 -13 -8 -3 -47
-50 -88 -106 -41 -55 -77 -100 -81 -101 -5 0 -8 65 -8 145 l0 144 68 4 c156 8
160 8 166 -9z m-698 -159 c12 -8 24 -12 28 -10 3 3 4 2 1 -1 -2 -4 5 -18 15
-32 11 -14 19 -27 17 -29 -2 -2 -38 2 -80 8 -103 15 -175 60 -114 72 51 10
114 6 133 -8z m1032 6 c24 -15 -33 -48 -105 -60 -38 -7 -76 -14 -85 -16 -22
-4 -23 8 -3 25 8 7 15 18 15 25 0 6 10 17 23 23 26 13 136 15 155 3z m-1002
-111 c17 0 47 -11 67 -24 19 -13 37 -22 40 -20 2 2 4 -3 4 -11 0 -21 -56 -29
-120 -15 -51 10 -137 67 -137 89 0 5 26 2 58 -5 31 -8 71 -14 88 -14z m980 15
c-2 -16 -26 -44 -26 -31 0 4 -12 -1 -27 -12 -64 -44 -194 -60 -207 -25 -4 10
-4 14 0 10 4 -3 20 5 36 18 16 14 42 25 56 26 15 0 52 7 82 14 77 17 89 17 86
0z"/>
<path d="M6106 6039 c-14 -39 -26 -76 -26 -83 0 -15 78 -48 93 -39 6 4 7 1 2
-7 -6 -10 -4 -12 8 -7 10 3 17 2 17 -3 0 -6 6 -10 14 -10 15 0 70 140 59 151
-5 4 -38 21 -75 38 l-66 29 -26 -69z m91 -1 c15 -7 29 -13 31 -14 2 -1 -2 -20
-7 -42 -7 -26 -18 -42 -31 -45 -11 -3 -20 -2 -20 2 0 4 -11 13 -24 19 -23 10
-34 52 -15 52 4 0 11 9 14 20 7 23 14 24 52 8z"/>
<path d="M7861 6074 c-84 -38 -83 -35 -54 -112 14 -37 29 -70 33 -75 3 -4 38
7 77 24 l71 31 -11 34 c-5 18 -14 31 -18 28 -5 -3 -6 1 -3 9 6 17 -21 87 -33
86 -4 0 -32 -11 -62 -25z m59 -42 c8 -10 16 -29 17 -44 1 -20 -5 -29 -25 -37
-49 -19 -54 -17 -66 24 -12 39 -12 40 18 57 39 22 39 22 56 0z"/>
<path d="M6740 5640 c-194 -33 -322 -76 -505 -168 -124 -62 -138 -73 -130 -94
6 -15 13 -14 58 13 259 153 543 229 857 229 295 0 535 -61 793 -202 85 -47
111 -57 118 -46 10 16 -12 35 -94 78 -31 17 -62 28 -69 24 -6 -4 -8 -3 -5 3 7
11 -8 19 -118 65 -258 107 -620 147 -905 98z"/>
<path d="M6245 5257 c-43 -99 -43 -99 57 -137 81 -31 131 -78 173 -163 49
-100 50 -146 3 -195 -37 -38 -63 -82 -81 -136 -5 -17 -13 -152 -17 -301 -6
-216 -12 -292 -29 -378 -34 -166 -102 -334 -189 -465 -33 -51 -36 -53 -47 -33
-6 12 -14 18 -19 14 -4 -4 -4 -1 -1 8 3 9 -25 61 -70 129 -41 62 -75 119 -75
126 0 7 29 22 63 33 35 12 82 35 105 52 46 33 105 116 98 136 -3 7 -1 13 3 13
5 0 18 21 28 48 15 39 18 75 17 207 0 160 -8 214 -51 345 -39 122 -156 313
-236 389 l-26 24 -40 -32 c-161 -127 -293 -370 -302 -554 -2 -39 -6 -47 -18
-43 -9 3 -50 17 -91 32 -62 23 -97 28 -202 32 -70 2 -139 1 -154 -2 l-27 -7 6
-112 c11 -236 104 -409 267 -494 51 -26 62 -28 170 -27 92 0 127 5 174 22 53
20 61 20 76 7 9 -8 21 -12 26 -8 5 5 6 4 1 -1 -4 -6 11 -29 35 -53 23 -23 39
-45 36 -48 -3 -3 -45 4 -94 16 -127 30 -247 24 -330 -16 -86 -42 -164 -125
-202 -217 -29 -68 -71 -253 -60 -263 12 -13 124 -26 218 -27 305 -3 495 132
508 364 3 43 8 78 12 78 13 0 88 -124 110 -181 l21 -51 -128 -132 c-145 -149
-175 -199 -213 -356 -24 -101 -39 -136 -76 -186 -16 -20 -24 -44 -24 -70 1
-74 37 -94 168 -94 471 0 933 489 1092 1155 50 210 64 323 64 530 1 205 -10
273 -61 382 -31 68 -109 153 -168 184 -38 20 -47 31 -56 64 -33 130 -84 219
-178 307 -64 61 -192 138 -228 138 -8 0 -25 -24 -38 -53z m213 -96 c84 -67
163 -198 192 -319 11 -48 16 -55 59 -76 122 -62 220 -243 221 -406 0 -26 5
-51 12 -58 9 -9 9 -12 -1 -12 -7 0 -10 -3 -8 -7 3 -5 1 -75 -4 -156 -26 -446
-189 -874 -449 -1182 -101 -119 -242 -230 -359 -282 -97 -43 -351 -89 -351
-63 0 5 4 10 9 10 23 0 189 77 263 122 170 103 342 263 462 431 79 110 193
336 237 466 77 233 124 604 100 780 -19 136 -64 220 -135 252 -85 39 -140 18
-183 -68 -24 -50 -28 -70 -28 -143 0 -49 6 -95 13 -107 10 -19 10 -32 -4 -73
-14 -43 -14 -55 -3 -92 12 -38 12 -49 -4 -98 -13 -37 -18 -73 -14 -110 3 -44
-1 -63 -19 -99 -17 -30 -24 -61 -24 -96 0 -36 -5 -57 -16 -66 -26 -21 -51 -81
-59 -138 -6 -43 -14 -59 -40 -83 -18 -16 -43 -53 -56 -82 -12 -31 -32 -60 -45
-67 -23 -12 -55 -55 -84 -113 -10 -19 -26 -33 -47 -38 -46 -12 -135 -98 -171
-166 -17 -32 -43 -101 -58 -153 -31 -110 -59 -164 -109 -208 -65 -57 -73 -34
-20 61 19 36 43 102 55 153 11 50 34 117 50 151 35 71 131 187 218 262 168
146 302 419 353 722 7 43 13 179 14 320 2 284 10 319 93 412 26 28 40 48 32
44 -12 -7 -13 -6 -2 5 18 19 15 70 -10 146 -18 57 -32 78 -87 134 -46 46 -83
73 -124 89 -56 23 -57 25 -51 54 3 17 8 34 11 38 6 12 113 -45 171 -91z m-417
-354 l47 -68 -71 -66 c-40 -39 -72 -62 -75 -55 -2 7 1 66 7 131 6 66 11 127
11 136 0 26 24 3 81 -78z m-126 -51 c-4 -62 -11 -119 -16 -127 -6 -11 -20 -2
-64 41 -30 30 -55 59 -55 65 0 17 134 158 138 145 2 -6 1 -62 -3 -124z m-25
-262 c0 -45 -4 -63 -15 -67 -8 -4 -17 -1 -21 5 -5 7 -2 8 7 3 12 -8 12 -6 0 8
-7 9 -17 14 -22 11 -5 -3 -8 -1 -7 4 2 6 -25 42 -60 81 l-64 71 23 47 22 46
68 -74 68 -74 1 -61z m253 154 c-2 -5 0 -8 4 -8 7 0 8 -16 4 -64 -1 -5 -7 -4
-14 2 -10 9 -35 -9 -107 -73 -52 -47 -97 -85 -102 -85 -4 0 -8 9 -8 20 0 11
-4 20 -10 20 -5 0 -10 5 -10 10 0 6 7 10 15 10 10 0 15 10 15 27 0 20 18 46
68 97 37 38 61 66 55 62 -7 -4 -13 -5 -13 -2 0 3 15 12 33 20 29 12 34 12 53
-8 12 -11 19 -24 17 -28z m-117 -7 c-9 -10 -23 -18 -31 -18 -12 0 -10 6 6 23
25 27 49 21 25 -5z m657 -15 c60 -25 117 -133 117 -222 0 -37 -6 -39 -158 -50
-89 -7 -93 -6 -99 14 -3 12 -8 20 -12 18 -11 -7 9 146 24 181 12 29 65 73 88
73 4 0 22 -6 40 -14z m-523 -61 c9 0 20 -20 29 -54 l15 -55 -115 -109 c-62
-60 -126 -118 -141 -129 l-28 -19 0 78 0 79 110 98 c96 85 109 100 98 114 -11
13 -11 14 2 7 8 -5 22 -10 30 -10z m-365 -88 c4 5 5 3 2 -3 -7 -12 25 -47 36
-39 4 3 5 2 2 -2 -3 -3 6 -21 20 -39 22 -28 25 -43 25 -109 0 -42 -4 -75 -9
-73 -5 2 -54 53 -110 113 -98 106 -102 111 -96 147 3 20 10 49 15 64 l11 27
47 -47 c27 -25 52 -43 57 -39z m-104 -84 c10 -11 10 -14 2 -9 -8 4 -13 2 -13
-7 0 -14 33 -55 142 -176 58 -64 58 -64 58 -127 0 -35 -2 -64 -5 -64 -15 0
-59 63 -95 136 -28 57 -54 95 -90 127 -43 39 -50 50 -50 82 0 29 3 36 15 31 8
-3 14 -2 14 2 -4 26 4 28 22 5z m531 -70 l3 -50 -150 -137 c-164 -149 -166
-150 -158 -49 5 59 -3 50 198 231 98 89 102 89 107 5z m-824 35 c6 -6 12 -32
12 -59 0 -34 5 -51 16 -57 10 -6 13 -12 6 -16 -5 -3 -8 -14 -5 -24 7 -29 -32
-21 -57 11 -12 15 -24 26 -28 25 -10 -2 -142 125 -142 136 0 12 182 -3 198
-16z m130 -23 c13 -2 27 -7 30 -11 4 -4 -2 -4 -13 0 -15 6 -17 4 -8 -5 6 -6 9
-18 6 -25 -3 -8 0 -21 7 -29 7 -9 8 -15 2 -15 -6 0 -8 -31 -4 -85 2 -47 1 -85
-4 -85 -5 0 -28 17 -52 39 -34 31 -42 45 -42 73 0 19 -3 63 -7 98 l-6 63 34
-7 c19 -5 45 -9 57 -11z m-269 -76 c36 -29 62 -48 57 -42 -5 9 -2 11 8 7 9 -3
16 -10 16 -15 0 -5 5 -9 11 -9 5 0 7 5 3 12 -4 7 -3 8 5 4 9 -6 9 -11 1 -21
-7 -9 -6 -16 7 -26 17 -13 17 -13 3 5 -14 18 -14 18 6 6 11 -7 21 -19 21 -26
0 -7 -3 -11 -7 -9 -3 2 -23 0 -43 -5 -21 -4 -39 -4 -43 1 -3 5 -13 9 -22 9
-16 -1 -16 -2 0 -14 10 -7 47 -14 84 -15 60 -2 71 -5 111 -38 24 -20 41 -38
39 -41 -6 -6 -211 -31 -258 -32 -34 0 -37 2 -52 47 -17 50 -22 87 -8 66 5 -8
13 -9 22 -3 8 6 13 10 10 11 -58 10 -58 11 -70 107 -12 91 -7 111 18 90 10 -8
46 -39 81 -69z m1546 -21 c0 -47 -3 -89 -7 -93 -3 -3 -59 -3 -124 2 -116 8
-119 9 -132 35 -18 38 -6 95 23 114 22 14 158 33 215 30 25 -1 25 -2 25 -88z
m-1176 46 c6 4 10 4 9 -1 -1 -4 3 -17 9 -29 7 -11 15 -78 19 -148 7 -124 6
-128 -12 -118 -52 28 -62 52 -69 170 -5 73 -11 112 -19 112 -6 0 -4 5 4 10 8
5 11 10 5 10 -5 0 -4 4 4 9 10 7 19 5 26 -6 7 -9 17 -13 24 -9z m600 -150 c-6
-31 -53 -80 -224 -234 l-70 -63 -8 49 -9 49 154 148 153 147 5 -32 c3 -18 3
-47 -1 -64z m-494 15 c4 -11 10 -17 14 -15 4 3 7 -3 8 -12 0 -9 9 -55 20 -101
20 -90 43 -119 43 -57 0 44 7 44 41 3 22 -27 27 -45 32 -114 3 -46 1 -83 -3
-83 -5 0 -23 15 -39 33 -24 25 -31 41 -31 75 0 31 -4 42 -15 42 -8 0 -15 -9
-15 -20 0 -28 -22 -25 -52 8 -24 25 -26 36 -33 156 -6 117 -5 129 9 117 8 -7
18 -21 21 -32z m1058 -49 c6 -6 -20 -201 -28 -208 -7 -7 -65 -8 -65 -1 0 3
-37 14 -82 23 -45 9 -85 22 -90 29 -14 21 -9 95 9 132 l17 37 117 -4 c65 -2
120 -5 122 -8z m-589 -92 c-16 -53 -55 -117 -92 -150 -37 -34 -144 -82 -165
-75 -5 1 37 47 94 101 57 54 103 103 101 108 -1 5 1 7 6 4 5 -3 18 3 28 14 26
26 37 25 28 -2z m-598 -34 c19 -15 34 -29 34 -33 0 -6 -278 -42 -322 -41 -19
0 -64 57 -53 68 7 7 189 28 263 31 33 1 52 -5 78 -25z m94 -70 c0 -7 9 -16 20
-19 19 -6 46 -42 38 -51 -13 -12 -143 -37 -198 -38 -77 -1 -140 6 -134 15 6
10 -26 20 -38 12 -6 -3 -8 -1 -5 4 4 6 -1 14 -11 18 -32 12 8 22 166 40 83 10
152 21 152 24 0 4 -6 13 -12 21 -11 12 -10 12 5 1 9 -7 17 -19 17 -27z m31 -1
c13 -16 12 -17 -3 -4 -10 7 -18 15 -18 17 0 8 8 3 21 -13z m932 -39 c79 -14
96 -20 93 -33 -3 -9 -15 -49 -27 -89 l-21 -74 -35 7 c-18 3 -69 18 -111 33
l-77 27 -3 45 c-3 59 28 115 61 107 12 -3 66 -14 120 -23z m25 -240 c6 -4 -18
-72 -49 -142 l-29 -63 -102 53 c-67 35 -104 60 -106 72 -6 30 19 104 43 130
l23 25 109 -36 c59 -20 110 -37 111 -39z m-853 30 c29 -13 29 -13 -22 -11 -29
1 -53 5 -53 10 0 4 -9 7 -20 7 -11 0 -20 5 -20 10 0 13 73 3 115 -16z m-180
-4 c49 -12 74 -15 83 -8 9 8 11 7 6 -6 -4 -12 0 -16 15 -16 12 0 21 -4 21 -8
0 -11 -65 -42 -88 -42 -30 -1 -232 45 -232 52 0 13 74 47 100 47 14 0 57 -8
95 -19z m265 -65 c0 -86 -37 -192 -80 -230 l-23 -20 7 35 c3 19 14 76 22 125
12 64 22 95 36 108 29 25 38 21 38 -18z m-413 -11 c7 3 13 1 13 -4 0 -6 15
-10 34 -10 18 0 48 -6 67 -14 l32 -14 -42 -26 c-61 -39 -60 -39 -160 -21 -100
19 -106 25 -66 73 23 28 28 29 67 21 23 -6 47 -8 55 -5z m303 -82 c-34 -189
-38 -199 -83 -221 -22 -11 -42 -19 -44 -17 -4 3 34 236 43 267 5 18 87 61 93
47 1 -5 -2 -39 -9 -76z m-153 -147 l-22 -110 -47 -9 c-27 -5 -50 -7 -53 -5 -4
5 32 210 38 215 1 1 25 16 52 33 l50 32 2 -23 c2 -13 -7 -72 -20 -133z m837
91 c53 -25 96 -47 96 -50 0 -9 -82 -146 -91 -152 -5 -3 -47 18 -92 47 -116 73
-117 75 -105 110 12 36 61 89 81 89 9 0 59 -20 111 -44z m-1051 14 c20 -6 37
-15 37 -20 0 -5 -17 -21 -37 -36 -21 -15 -63 -46 -93 -69 -85 -64 -84 -64 -76
-20 4 20 16 66 27 102 l21 66 41 -7 c23 -3 59 -10 80 -16z m68 -140 c-9 -55
-20 -91 -29 -95 -25 -9 -183 7 -179 19 3 12 203 166 216 166 4 0 1 -40 -8 -90z
m858 -51 c53 -34 98 -63 100 -65 6 -6 -65 -106 -94 -134 l-24 -23 -33 28 c-18
15 -59 52 -92 81 l-58 53 26 45 c22 38 59 76 75 76 2 0 47 -28 100 -61z m-134
-175 c47 -41 85 -79 85 -83 0 -3 -27 -31 -61 -60 l-61 -54 -82 82 c-45 45 -85
79 -89 76 -4 -3 -5 -2 -2 2 3 3 -1 13 -7 21 -10 11 -7 18 12 33 33 26 92 58
107 59 7 0 51 -34 98 -76z m-155 -137 c45 -48 81 -89 79 -91 -46 -40 -300
-186 -324 -186 -3 0 5 21 19 48 13 26 31 78 41 117 22 88 74 207 90 203 7 -2
49 -43 95 -91z"/>
<path d="M5245 4130 c-3 -5 -1 -10 4 -10 6 0 11 5 11 10 0 6 -2 10 -4 10 -3 0
-8 -4 -11 -10z"/>
<path d="M7659 5273 c-99 -49 -214 -163 -257 -253 -17 -36 -38 -94 -47 -130
-15 -60 -19 -66 -57 -85 -61 -29 -132 -103 -167 -174 -37 -73 -65 -172 -59
-212 3 -16 0 -25 -5 -22 -16 10 0 -348 22 -492 38 -248 102 -449 207 -655 176
-342 410 -566 689 -659 182 -60 314 -63 371 -6 34 34 30 73 -12 149 -20 36
-46 108 -59 161 -38 151 -80 220 -224 368 l-125 127 21 49 c22 52 103 181 114
181 3 0 8 -35 11 -77 12 -201 151 -326 405 -363 88 -13 297 0 317 20 13 13
-12 152 -26 144 -6 -4 -8 1 -4 14 9 28 -45 155 -90 212 -46 57 -125 113 -192
135 -68 23 -219 16 -309 -13 -35 -11 -63 -16 -63 -11 0 5 16 26 35 47 19 22
31 42 27 46 -4 4 0 6 8 4 9 -2 14 3 12 12 -2 8 0 12 4 8 4 -4 13 -3 19 2 9 7
41 2 104 -16 156 -45 278 -24 391 67 47 38 130 155 133 187 1 12 5 22 9 22 23
0 64 233 54 304 l-7 43 -73 7 c-97 9 -240 -8 -323 -39 -37 -13 -70 -21 -74
-17 -3 4 -11 40 -17 80 -26 161 -107 307 -250 452 l-84 85 -45 -50 c-161 -179
-248 -375 -275 -621 -31 -286 68 -491 267 -549 30 -8 55 -19 55 -23 0 -5 -28
-49 -63 -98 -34 -50 -73 -114 -86 -142 -14 -29 -28 -52 -32 -52 -15 0 -85 109
-130 205 -87 182 -119 359 -119 655 0 297 -15 367 -99 464 -41 48 -43 52 -37
98 17 126 99 220 239 273 27 10 51 24 54 32 9 22 -48 143 -67 143 -10 0 -50
-17 -91 -37z m101 -74 c0 -11 -20 -25 -56 -39 -76 -31 -165 -115 -194 -182
-14 -32 -25 -82 -28 -125 l-5 -73 41 -44 c22 -23 45 -54 52 -67 20 -36 40
-120 40 -167 0 -26 4 -41 10 -37 6 3 10 -1 10 -9 0 -8 -4 -18 -10 -21 -15 -9
-12 -242 5 -390 26 -221 74 -367 178 -544 50 -84 87 -130 191 -235 182 -185
213 -238 261 -444 10 -40 30 -91 46 -115 26 -37 38 -77 24 -77 -3 0 -21 10
-40 23 -44 28 -86 106 -119 219 -45 159 -124 269 -225 314 -28 12 -44 30 -65
70 -16 30 -42 64 -58 75 -16 12 -41 48 -57 83 -17 37 -41 72 -58 84 -24 17
-31 31 -36 71 -6 52 -35 119 -60 140 -10 8 -15 30 -15 64 0 30 -7 69 -18 92
-11 25 -18 67 -20 115 0 41 -8 91 -16 111 -11 25 -13 41 -6 53 6 11 7 46 4 85
-4 36 -6 80 -5 96 1 17 3 75 3 130 1 92 -1 104 -27 147 -34 59 -75 82 -132 75
-51 -5 -84 -28 -120 -82 -49 -75 -60 -134 -59 -320 0 -329 69 -627 209 -905
50 -101 150 -250 166 -250 6 0 7 -5 4 -10 -4 -6 -1 -9 7 -8 7 2 12 -3 10 -10
-3 -16 160 -185 249 -258 93 -76 214 -147 325 -190 52 -20 94 -39 94 -43 0
-13 -132 -1 -211 19 -42 11 -97 29 -124 40 -76 33 -206 122 -285 196 -77 73
-195 223 -249 317 -18 31 -36 55 -41 52 -5 -3 -12 0 -16 6 -4 8 -3 9 4 5 14
-8 15 -4 6 18 -3 9 -10 14 -14 11 -5 -3 -12 0 -16 6 -5 8 -3 9 6 4 9 -6 12 -4
8 6 -4 8 -27 63 -53 123 -106 252 -168 563 -168 846 -1 184 18 280 70 369 35
60 109 132 160 155 38 17 42 22 57 84 42 173 140 299 292 376 l49 25 12 -22
c7 -12 12 -29 13 -38z m324 -406 c4 -54 9 -115 11 -135 7 -52 -8 -49 -82 21
l-63 58 41 59 c48 69 69 94 80 94 4 0 10 -44 13 -97z m109 22 c31 -37 57 -73
57 -79 0 -13 -107 -122 -114 -115 -10 10 -21 269 -11 266 5 -2 36 -34 68 -72z
m-178 -186 c86 -74 89 -78 100 -175 3 -29 1 -45 -9 -53 -10 -8 -16 -9 -21 -1
-3 5 1 10 9 10 9 0 16 5 16 11 0 6 -7 9 -15 6 -9 -4 -22 5 -35 22 -20 29 -150
146 -136 124 4 -7 2 -13 -3 -13 -6 0 -11 5 -11 10 0 6 -5 10 -11 10 -5 0 -7
-5 -3 -12 5 -7 2 -9 -7 -4 -8 4 -2 -3 12 -16 116 -101 149 -129 149 -124 0 4
14 -9 30 -27 28 -32 30 -40 30 -111 0 -42 -4 -76 -8 -76 -5 0 -67 56 -139 125
l-131 125 13 52 c8 28 20 55 26 59 7 4 14 18 16 31 3 25 33 98 40 98 3 0 42
-32 88 -71z m284 35 c12 -19 21 -40 21 -46 0 -5 -29 -42 -64 -82 -35 -39 -65
-80 -67 -91 -3 -12 -13 -20 -27 -21 -21 -1 -22 3 -22 63 l0 65 67 74 c36 41
67 74 69 74 1 0 11 -16 23 -36z m-856 -45 c33 -25 57 -103 57 -184 0 -91 -10
-100 -96 -87 -38 6 -90 14 -116 17 -26 3 -50 10 -53 15 -10 16 24 153 47 186
25 37 82 73 114 74 12 0 33 -9 47 -21z m923 -105 c13 -45 14 -62 4 -82 -9 -22
-9 -28 4 -38 9 -6 16 -25 16 -42 0 -24 -11 -41 -47 -76 -49 -46 -98 -115 -72
-102 8 4 7 2 -2 -6 -16 -13 -62 -108 -53 -108 3 0 -8 -11 -24 -25 -17 -14 -33
-25 -36 -25 -3 0 -6 26 -6 58 0 68 7 79 133 215 48 52 87 97 87 101 0 3 -9 6
-19 6 -12 0 -53 -36 -102 -90 -45 -49 -86 -90 -91 -90 -4 0 -8 38 -8 84 0 65
3 85 15 90 8 3 15 12 15 21 0 8 5 15 10 15 6 0 10 7 10 16 0 8 4 13 9 10 5 -4
36 23 68 59 32 35 61 64 65 65 4 0 15 -25 24 -56z m-132 -45 c-9 -10 -21 -16
-26 -13 -5 3 -2 14 8 25 9 10 21 16 26 13 5 -3 2 -14 -8 -25z m-162 -290 c45
-42 48 -49 48 -95 0 -88 -8 -87 -112 12 -51 49 -117 110 -145 136 -49 42 -53
50 -53 90 0 98 2 98 113 -4 56 -51 123 -114 149 -139z m753 192 c3 -5 -43 -49
-101 -97 -91 -75 -108 -85 -116 -71 -5 9 -14 17 -21 17 -8 0 -8 -3 1 -9 11 -7
11 -9 -2 -14 -9 -4 -16 -17 -16 -29 0 -28 -78 -97 -89 -80 -4 6 -3 55 1 109 5
54 7 105 5 113 -2 15 50 40 85 40 15 0 17 -7 11 -46 -5 -42 -4 -46 13 -42 15
2 20 14 24 53 5 48 6 50 40 56 56 10 158 10 165 0z m51 -98 c-13 -128 -15
-133 -47 -133 -19 0 -29 -5 -29 -15 0 -8 6 -12 13 -9 8 3 18 -6 25 -21 7 -15
8 -24 2 -20 -5 3 -10 0 -10 -8 0 -8 -8 -25 -18 -37 l-18 -23 -139 17 c-77 9
-141 18 -143 20 -2 2 18 21 43 41 l46 38 94 -7 c52 -3 95 -3 95 2 0 19 -27 32
-69 32 -26 0 -53 5 -61 10 -8 5 -11 10 -6 10 5 0 3 6 -3 14 -9 11 -9 16 0 22
7 4 9 3 5 -4 -3 -6 -3 -13 2 -16 4 -2 52 31 107 75 55 43 104 79 109 79 4 0 5
-30 2 -67z m-1467 38 c75 -9 91 -24 91 -89 0 -79 -4 -82 -139 -82 -99 0 -120
3 -125 16 -3 9 -6 52 -6 96 l0 80 58 -7 c31 -4 86 -11 121 -14z m1036 -138
c-4 -71 -12 -134 -18 -141 -6 -7 -24 -23 -40 -34 l-30 -22 7 134 c4 74 11 139
16 145 6 7 8 15 5 18 -3 4 -2 5 1 2 4 -2 16 2 28 10 11 8 24 15 29 15 5 0 6
-56 2 -127z m-605 32 c12 -13 27 -22 33 -18 6 3 7 1 4 -4 -4 -6 12 -28 36 -49
23 -21 77 -70 121 -111 l79 -73 -6 -45 c-2 -25 -7 -49 -11 -52 -5 -5 -121 96
-248 218 -46 44 -48 47 -48 102 0 31 4 57 8 57 5 0 19 -11 32 -25z m485 -143
l-7 -129 -33 -26 c-33 -26 -34 -26 -40 -6 -9 28 3 133 22 194 16 51 51 110 60
101 3 -3 2 -63 -2 -134z m-836 34 c20 -24 35 -118 23 -147 -9 -24 -19 -27
-122 -44 -89 -14 -114 -15 -120 -5 -11 17 -32 189 -25 200 10 16 231 12 244
-4z m531 -237 l75 -70 -40 6 c-86 14 -154 65 -194 146 -17 34 -31 69 -31 77 0
14 57 -33 190 -159z m602 130 c73 -7 137 -16 143 -21 6 -5 -3 -20 -22 -39
l-31 -31 -146 18 c-81 10 -152 22 -159 26 -15 11 52 71 70 64 7 -3 73 -11 145
-17z m-447 -187 c-20 -19 -38 -32 -40 -30 -2 1 1 41 6 88 8 71 14 89 37 113
l27 28 3 -83 3 -83 -36 -33z m340 83 c66 -8 126 -15 133 -15 29 0 8 -23 -45
-48 -44 -20 -73 -26 -123 -26 -66 1 -186 29 -196 46 -4 5 9 23 27 39 24 20 41
27 59 24 14 -3 79 -12 145 -20z m-988 -17 c19 -25 31 -77 24 -104 -6 -25 -17
-31 -115 -60 l-108 -32 -9 22 c-15 36 -39 139 -33 145 8 9 154 39 195 40 20 1
41 -5 46 -11z m51 -191 c28 -29 52 -89 52 -127 0 -29 -5 -33 -97 -76 -53 -24
-102 -43 -109 -40 -16 6 -87 187 -77 197 4 4 46 19 93 34 47 15 90 28 95 30
18 6 21 5 43 -18z m727 -7 c-3 -5 -14 -10 -24 -10 -10 0 -38 -7 -61 -15 -24
-8 -45 -13 -48 -10 -9 9 5 16 55 30 59 16 86 18 78 5z m221 -22 c24 -12 44
-25 44 -28 0 -4 -54 -17 -120 -30 -107 -21 -123 -22 -156 -9 -21 8 -39 19 -41
25 -4 11 158 60 206 63 13 0 43 -9 67 -21z m-368 -51 c12 -14 52 -205 52 -242
0 -17 -5 -14 -30 15 -34 41 -56 102 -66 183 -6 53 -5 57 14 57 11 0 24 -6 30
-13z m488 -41 c19 -19 34 -38 34 -43 0 -6 -45 -17 -100 -27 l-100 -16 -43 26
c-23 15 -44 29 -47 31 -9 8 23 21 67 28 23 3 43 10 43 15 0 4 8 6 18 4 9 -2
31 0 47 5 44 14 44 14 81 -23z m-377 -5 l38 -20 18 -108 c9 -59 20 -112 23
-118 8 -13 12 -55 4 -55 -19 0 -92 44 -96 58 -12 47 -45 229 -46 255 0 12 19
8 59 -12z m136 -81 c50 -29 53 -33 64 -87 21 -104 29 -158 25 -162 -2 -2 -25
0 -51 5 l-47 9 -26 133 c-14 72 -24 132 -21 132 2 0 27 -13 56 -30z m-717 -13
c27 -29 56 -97 45 -108 -4 -4 -50 -33 -102 -65 l-94 -56 -17 22 c-9 12 -31 48
-48 80 l-32 58 92 45 c107 52 127 55 156 24z m1032 -22 c6 -19 16 -35 21 -35
6 0 8 -4 4 -9 -3 -6 0 -30 6 -55 6 -25 9 -50 7 -56 -3 -11 -199 127 -213 150
-8 13 12 20 78 30 85 12 85 13 97 -25z m-91 -120 c61 -44 110 -83 111 -87 0
-9 -115 -20 -165 -16 l-39 3 -18 85 c-20 102 -21 103 -9 98 6 -1 59 -39 120
-83z m-823 -27 c26 -29 54 -75 54 -86 0 -5 -39 -45 -86 -88 l-86 -78 -44 46
c-23 25 -45 44 -48 42 -4 -2 -4 -1 -1 3 3 3 -4 20 -14 37 l-20 31 92 58 c50
31 101 57 113 57 11 0 29 -10 40 -22z m161 -164 c29 -20 53 -39 53 -43 0 -3
-42 -49 -94 -100 l-95 -94 -55 58 c-31 32 -56 61 -56 66 0 14 162 149 179 149
9 0 39 -16 68 -36z m112 -121 c10 -21 33 -85 51 -143 18 -58 41 -122 51 -142
18 -35 18 -38 3 -38 -25 0 -199 95 -263 142 l-53 40 88 89 c49 49 92 89 96 89
4 0 16 -17 27 -37z"/>
<path d="M8590 4240 c0 -5 5 -10 11 -10 5 0 7 5 4 10 -3 6 -8 10 -11 10 -2 0
-4 -4 -4 -10z"/>
<path d="M6901 3237 c-76 -166 -207 -356 -333 -485 -198 -202 -408 -326 -648
-381 -123 -29 -166 -33 -180 -15 -7 7 -17 11 -23 7 -5 -3 -7 -1 -4 4 7 12 -16
36 -26 28 -4 -3 -5 -2 -2 1 2 4 -37 53 -88 109 -51 56 -106 120 -123 141 -39
50 -153 233 -188 302 -26 52 -40 63 -49 40 -10 -30 135 -277 232 -397 66 -80
214 -230 223 -225 5 3 7 0 6 -6 -2 -7 5 -17 15 -23 10 -7 39 -32 65 -56 26
-24 86 -70 135 -102 140 -92 416 -227 438 -213 4 2 10 0 14 -6 4 -6 10 -8 15
-5 5 3 11 1 15 -4 3 -6 12 -8 20 -4 8 3 15 1 15 -5 0 -12 127 -47 242 -67 58
-11 92 -12 117 -5 20 5 47 12 61 14 14 3 1 3 -28 1 -29 -2 -50 0 -48 4 3 5
-16 11 -42 15 -26 3 -103 19 -171 36 -68 16 -128 27 -133 24 -4 -3 -8 0 -8 5
0 6 -5 11 -11 11 -5 0 -7 -4 -4 -10 3 -6 -1 -7 -10 -4 -9 4 -13 9 -11 12 3 3
-42 25 -101 49 -59 24 -148 66 -198 93 -96 54 -268 173 -273 190 -2 5 11 10
30 10 53 0 186 36 280 75 290 122 565 375 738 680 30 52 57 95 61 95 4 0 7
-261 8 -580 l1 -580 -24 0 c-13 0 -76 9 -140 20 -63 11 -123 17 -133 14 -15
-5 -16 -4 -3 6 12 9 9 11 -18 6 -18 -3 -31 -2 -27 3 3 5 -5 7 -17 3 -12 -3
-19 -1 -15 4 3 6 -39 25 -94 44 -54 19 -99 37 -99 41 0 3 29 14 65 24 115 31
241 121 325 231 26 35 50 61 54 57 3 -3 6 -75 6 -160 0 -148 1 -153 21 -153
19 0 20 4 13 43 -4 23 -7 49 -6 57 1 20 5 548 3 582 -1 39 -22 27 -65 -38 -50
-75 -225 -254 -321 -329 -92 -71 -190 -127 -290 -166 -50 -20 -70 -33 -70 -45
0 -21 123 -94 144 -86 9 3 12 1 8 -5 -11 -18 282 -131 303 -118 6 3 10 1 10
-6 0 -6 8 -9 20 -6 11 3 18 2 15 -3 -8 -13 242 -59 328 -60 34 0 37 2 37 29 0
16 -6 32 -12 34 -10 4 -10 6 0 6 16 1 18 1281 2 1281 -6 0 -28 -37 -49 -83z
m-93 -569 c-6 -125 -35 -185 -143 -294 -125 -127 -249 -187 -379 -183 -63 2
-74 5 -100 31 -15 16 -27 30 -25 32 21 20 94 36 163 36 87 0 147 12 169 35 8
8 17 11 21 8 3 -4 6 -1 6 6 0 7 5 9 10 6 6 -4 39 22 73 57 68 68 97 128 97
201 0 32 9 50 48 97 26 33 51 59 56 59 4 1 6 -41 4 -91z m-169 -158 c-24 -55
-94 -126 -154 -154 -20 -10 -62 -20 -93 -22 l-57 -5 30 26 c17 15 24 24 16 20
-9 -6 -12 -4 -7 4 4 6 12 9 17 6 10 -7 126 78 209 153 62 56 72 49 39 -28z"/>
<path d="M7074 3305 c-4 -8 -3 -27 0 -41 4 -14 7 -311 7 -660 l0 -634 46 0
c74 0 244 29 360 61 111 30 387 155 377 171 -3 4 2 5 10 2 9 -4 18 1 22 10 3
9 10 14 14 11 10 -6 26 16 26 33 -1 7 -28 25 -61 40 -33 15 -93 45 -132 65
-40 20 -75 37 -78 38 -2 0 -15 8 -27 19 -203 168 -287 251 -365 363 -31 43
-60 76 -67 74 -8 -3 -12 -105 -14 -361 -2 -337 -1 -357 15 -354 10 2 17 10 15
17 -4 18 -3 42 5 191 l8 135 34 -53 c68 -107 225 -225 346 -262 73 -21 72 -20
45 -35 -94 -49 -403 -125 -511 -125 l-39 0 0 585 c0 322 2 585 4 585 2 0 33
-51 70 -113 93 -157 177 -266 292 -377 104 -100 219 -184 237 -173 5 3 7 1 3
-5 -15 -25 316 -168 410 -176 17 -2 36 -6 43 -10 6 -4 15 -5 20 -2 5 3 14 0
20 -8 9 -11 -2 -24 -56 -64 -334 -246 -718 -372 -1136 -372 -67 0 -140 -5
-162 -12 l-40 -12 80 -8 c158 -16 478 13 628 57 263 76 477 182 677 333 115
88 318 295 408 417 91 123 185 295 175 322 -5 12 -3 14 8 8 8 -5 11 -5 6 1
-20 21 -35 4 -89 -99 -32 -60 -79 -138 -105 -175 -61 -87 -189 -236 -244 -286
-24 -21 -44 -44 -44 -50 0 -6 -7 -11 -15 -11 -8 0 -15 -5 -15 -12 0 -6 -4 -15
-9 -20 -5 -5 -6 -2 -1 6 7 11 -1 13 -38 9 -26 -3 -45 -2 -42 2 3 4 -13 10 -34
14 -63 10 -250 75 -320 112 -35 18 -68 31 -74 27 -6 -3 -7 -2 -4 4 3 5 -8 18
-26 28 -53 30 -170 119 -237 181 -35 33 -60 53 -55 45 5 -10 4 -12 -4 -7 -6 4
-9 11 -6 16 3 4 -16 32 -41 62 -70 81 -166 231 -228 355 -31 61 -56 116 -56
122 0 17 -30 13 -36 -4z m182 -555 c-7 12 -5 12 8 -1 10 -9 18 -22 19 -30 2
-8 14 -30 28 -49 18 -24 28 -52 32 -91 6 -60 23 -102 65 -157 27 -36 91 -86
78 -61 -4 7 0 5 8 -5 9 -11 16 -16 16 -11 0 5 6 1 13 -10 8 -10 19 -15 25 -11
7 4 12 3 12 -3 0 -18 79 -33 159 -30 82 3 161 -20 161 -47 0 -8 -3 -13 -7 -12
-5 1 -34 -10 -66 -26 -55 -27 -61 -28 -115 -17 -31 6 -97 31 -147 55 -201 99
-315 261 -315 447 0 66 1 70 17 58 15 -12 16 -12 9 1z m340 -340 c119 -85 118
-84 54 -76 -91 10 -94 11 -108 24 -8 7 -18 9 -24 6 -7 -4 -8 -2 -4 4 7 11 -6
17 -27 13 -5 -1 -6 2 -3 7 3 5 -9 22 -26 38 -32 31 -78 116 -78 148 0 14 16 3
63 -41 35 -33 104 -88 153 -123z m324 -155 c-7 -9 -15 -13 -19 -10 -3 3 1 10
9 15 21 14 24 12 10 -5z"/>
<path d="M4793 4952 l-71 -14 14 -47 c8 -25 17 -56 20 -68 3 -13 10 -23 14
-23 5 0 16 -3 26 -7 13 -5 15 -3 9 7 -5 9 -4 11 3 6 12 -7 77 7 100 22 9 7 8
21 -8 67 -11 33 -24 62 -28 66 -4 3 -39 -1 -79 -9z m66 -53 c15 -44 15 -46
-20 -58 -43 -15 -46 -14 -53 13 -3 13 -9 31 -12 40 -5 13 26 29 68 35 3 1 11
-13 17 -30z"/>
<path d="M9155 4961 c-13 -22 -45 -124 -40 -129 8 -8 139 -51 143 -47 2 2 14
37 27 78 l23 74 -57 12 c-31 7 -63 15 -73 17 -9 3 -19 0 -23 -5z m101 -54 c3
-3 -14 -65 -21 -74 -4 -6 -75 19 -75 27 0 5 5 21 10 36 9 24 14 26 46 21 20
-4 38 -8 40 -10z"/>
<path d="M4489 4383 c-13 -16 -12 -17 4 -4 9 7 17 15 17 17 0 8 -8 3 -21 -13z"/>
<path d="M9300 4310 c0 -5 5 -10 10 -10 6 0 10 5 10 10 0 6 -4 10 -10 10 -5 0
-10 -4 -10 -10z"/>
<path d="M9280 4304 c0 -13 18 -39 24 -34 2 3 -2 14 -10 24 -8 11 -14 16 -14
10z"/>
<path d="M9192 2909 c-29 -16 -56 -37 -59 -44 -8 -22 68 -138 92 -141 24 -4
155 44 155 56 0 17 -19 20 -47 9 -15 -7 -32 -13 -38 -14 -5 -2 -22 -6 -37 -10
-21 -5 -29 -2 -43 19 -10 14 -22 23 -28 19 -6 -3 -7 -1 -3 6 4 6 3 18 -4 26
-9 11 -3 19 30 41 39 26 41 26 55 8 8 -10 15 -22 15 -26 0 -14 30 -9 30 5 0
20 -39 77 -52 77 -7 0 -37 -14 -66 -31z"/>
<path d="M8604 2238 l-19 -23 23 19 c21 18 27 26 19 26 -2 0 -12 -10 -23 -22z"/>
<path d="M5319 2223 c-13 -16 -12 -17 4 -4 16 13 21 21 13 21 -2 0 -10 -8 -17
-17z"/>
<path d="M8888 2063 c7 -3 16 -2 19 1 4 3 -2 6 -13 5 -11 0 -14 -3 -6 -6z"/>
<path d="M7835 1578 c-11 -13 -18 -29 -17 -35 2 -7 -1 -13 -6 -13 -13 0 -36
-76 -27 -90 4 -6 13 -9 21 -6 8 3 14 1 14 -5 0 -6 5 -7 10 -4 6 3 10 1 10 -5
0 -6 5 -8 10 -5 6 3 10 2 10 -4 0 -6 7 -7 17 -4 11 4 14 3 9 -5 -4 -7 -1 -12
8 -12 9 0 19 -1 22 -2 4 -2 64 137 64 149 0 5 -74 36 -86 36 -8 0 -14 4 -14 8
0 5 -7 5 -17 2 -11 -4 -14 -3 -9 5 12 19 2 14 -19 -10z m45 -24 c0 4 11 -4 25
-17 24 -22 25 -25 11 -62 -10 -30 -18 -39 -32 -37 -11 2 -28 4 -39 6 -15 2
-20 10 -20 34 -1 18 3 32 8 32 5 0 6 7 3 16 -9 24 13 47 30 33 8 -6 14 -8 14
-5z"/>
<path d="M6203 1573 c0 -7 4 -13 8 -13 4 0 9 6 12 13 3 8 0 14 -7 14 -7 0 -13
-6 -13 -14z"/>
<path d="M6180 1572 c0 -7 -4 -11 -9 -8 -5 3 -29 -3 -54 -14 l-45 -20 30 -77
c17 -43 31 -79 32 -81 2 -1 35 12 74 29 53 24 72 37 72 51 0 11 -3 17 -7 15
-5 -3 -9 6 -10 20 0 14 -6 29 -13 33 -6 4 -11 10 -11 14 4 31 0 38 -14 26 -17
-14 -20 -40 -4 -40 5 0 7 -4 4 -10 -3 -5 -1 -10 5 -10 6 0 8 -5 5 -10 -4 -6
-2 -17 4 -24 8 -10 7 -17 -6 -27 -10 -9 -14 -9 -10 -2 5 9 -3 8 -28 -3 -29
-12 -38 -12 -49 -2 -7 7 -11 19 -8 26 2 6 -1 12 -6 12 -17 0 0 49 19 55 10 4
19 11 19 16 0 6 4 8 9 4 14 -8 21 9 10 25 -6 11 -9 12 -9 2z"/>


</g>
</svg>
